<mxfile host="Electron" modified="2023-11-21T09:18:48.521Z" agent="Mozilla/5.0 (Windows NT 10.0; Win64; x64) AppleWebKit/537.36 (KHTML, like Gecko) draw.io/22.1.2 Chrome/114.0.5735.289 Electron/25.9.4 Safari/537.36" etag="CW2COsFANnjnz0pgoFZ_" version="22.1.2" type="device">
  <diagram name="Página-1" id="ozhY-9G3JZ5Vfm8fAMTR">
    <mxGraphModel dx="2483" dy="1987" grid="1" gridSize="10" guides="1" tooltips="1" connect="1" arrows="1" fold="1" page="1" pageScale="1" pageWidth="827" pageHeight="1169" math="0" shadow="0">
      <root>
        <mxCell id="0" />
        <mxCell id="1" parent="0" />
        <mxCell id="25eURDqm_NGz2v3mhzRY-3" style="edgeStyle=orthogonalEdgeStyle;rounded=0;orthogonalLoop=1;jettySize=auto;html=1;exitX=0.25;exitY=0;exitDx=0;exitDy=0;entryX=0.5;entryY=0;entryDx=0;entryDy=0;" parent="1" source="_HaAn8n10JLx-krKhR4f-2" target="25eURDqm_NGz2v3mhzRY-2" edge="1">
          <mxGeometry relative="1" as="geometry">
            <Array as="points">
              <mxPoint x="70" y="270" />
              <mxPoint x="-115" y="270" />
            </Array>
          </mxGeometry>
        </mxCell>
        <mxCell id="As_d3XrpgWwLYWxegH64-36" style="edgeStyle=orthogonalEdgeStyle;rounded=0;orthogonalLoop=1;jettySize=auto;html=1;exitX=0.5;exitY=1;exitDx=0;exitDy=0;entryX=0.5;entryY=0;entryDx=0;entryDy=0;" edge="1" parent="1" source="_HaAn8n10JLx-krKhR4f-2" target="_HaAn8n10JLx-krKhR4f-19">
          <mxGeometry relative="1" as="geometry" />
        </mxCell>
        <mxCell id="_HaAn8n10JLx-krKhR4f-2" value="CLIENTES" style="rounded=0;whiteSpace=wrap;html=1;" parent="1" vertex="1">
          <mxGeometry x="40" y="310" width="120" height="60" as="geometry" />
        </mxCell>
        <mxCell id="As_d3XrpgWwLYWxegH64-39" style="edgeStyle=orthogonalEdgeStyle;rounded=0;orthogonalLoop=1;jettySize=auto;html=1;exitX=0.5;exitY=1;exitDx=0;exitDy=0;entryX=0;entryY=0.5;entryDx=0;entryDy=0;" edge="1" parent="1" source="_HaAn8n10JLx-krKhR4f-12" target="As_d3XrpgWwLYWxegH64-38">
          <mxGeometry relative="1" as="geometry" />
        </mxCell>
        <mxCell id="_HaAn8n10JLx-krKhR4f-12" value="TRABAJADOR" style="whiteSpace=wrap;html=1;rounded=0;" parent="1" vertex="1">
          <mxGeometry x="-350" y="190" width="120" height="60" as="geometry" />
        </mxCell>
        <mxCell id="_HaAn8n10JLx-krKhR4f-16" style="edgeStyle=orthogonalEdgeStyle;rounded=0;orthogonalLoop=1;jettySize=auto;html=1;exitX=1;exitY=0.5;exitDx=0;exitDy=0;entryX=0.5;entryY=0;entryDx=0;entryDy=0;" parent="1" source="_HaAn8n10JLx-krKhR4f-14" target="_HaAn8n10JLx-krKhR4f-2" edge="1">
          <mxGeometry relative="1" as="geometry" />
        </mxCell>
        <mxCell id="_HaAn8n10JLx-krKhR4f-26" style="edgeStyle=orthogonalEdgeStyle;rounded=0;orthogonalLoop=1;jettySize=auto;html=1;exitX=1;exitY=0.5;exitDx=0;exitDy=0;entryX=0.5;entryY=0;entryDx=0;entryDy=0;" parent="1" source="_HaAn8n10JLx-krKhR4f-14" target="_HaAn8n10JLx-krKhR4f-12" edge="1">
          <mxGeometry relative="1" as="geometry" />
        </mxCell>
        <mxCell id="_HaAn8n10JLx-krKhR4f-14" value="IS A" style="triangle;whiteSpace=wrap;html=1;direction=south;" parent="1" vertex="1">
          <mxGeometry x="5" y="140" width="70" height="50" as="geometry" />
        </mxCell>
        <mxCell id="djYJTSTvmprYbiEXdusg-99" style="edgeStyle=orthogonalEdgeStyle;rounded=0;orthogonalLoop=1;jettySize=auto;html=1;exitX=0.5;exitY=1;exitDx=0;exitDy=0;entryX=0.5;entryY=0;entryDx=0;entryDy=0;" parent="1" source="_HaAn8n10JLx-krKhR4f-19" target="25eURDqm_NGz2v3mhzRY-8" edge="1">
          <mxGeometry relative="1" as="geometry" />
        </mxCell>
        <mxCell id="_HaAn8n10JLx-krKhR4f-19" value="REALIZA" style="rhombus;whiteSpace=wrap;html=1;" parent="1" vertex="1">
          <mxGeometry x="60" y="400" width="100" height="50" as="geometry" />
        </mxCell>
        <mxCell id="_HaAn8n10JLx-krKhR4f-25" value="" style="edgeStyle=orthogonalEdgeStyle;rounded=0;orthogonalLoop=1;jettySize=auto;html=1;" parent="1" source="_HaAn8n10JLx-krKhR4f-24" target="_HaAn8n10JLx-krKhR4f-14" edge="1">
          <mxGeometry relative="1" as="geometry" />
        </mxCell>
        <mxCell id="_HaAn8n10JLx-krKhR4f-24" value="PERSONA" style="rounded=0;whiteSpace=wrap;html=1;" parent="1" vertex="1">
          <mxGeometry x="-20" y="20" width="120" height="60" as="geometry" />
        </mxCell>
        <mxCell id="_HaAn8n10JLx-krKhR4f-37" value="Descripción" style="ellipse;whiteSpace=wrap;html=1;" parent="1" vertex="1">
          <mxGeometry x="750.63" y="410" width="115" height="50" as="geometry" />
        </mxCell>
        <mxCell id="_HaAn8n10JLx-krKhR4f-38" value="Metros" style="ellipse;whiteSpace=wrap;html=1;" parent="1" vertex="1">
          <mxGeometry x="750" y="350" width="110" height="50" as="geometry" />
        </mxCell>
        <mxCell id="_HaAn8n10JLx-krKhR4f-39" value="&lt;u&gt;Cod. inmueble&lt;/u&gt;" style="ellipse;whiteSpace=wrap;html=1;" parent="1" vertex="1">
          <mxGeometry x="753.13" y="300" width="110" height="50" as="geometry" />
        </mxCell>
        <mxCell id="_HaAn8n10JLx-krKhR4f-40" value="&lt;u&gt;Cod. Piso&lt;/u&gt;" style="ellipse;whiteSpace=wrap;html=1;" parent="1" vertex="1">
          <mxGeometry x="380" y="700" width="90" height="30" as="geometry" />
        </mxCell>
        <mxCell id="_HaAn8n10JLx-krKhR4f-41" value="Dirección" style="ellipse;whiteSpace=wrap;html=1;" parent="1" vertex="1">
          <mxGeometry x="753.13" y="240" width="110" height="50" as="geometry" />
        </mxCell>
        <mxCell id="djYJTSTvmprYbiEXdusg-108" style="edgeStyle=orthogonalEdgeStyle;rounded=0;orthogonalLoop=1;jettySize=auto;html=1;exitX=1;exitY=0.5;exitDx=0;exitDy=0;" parent="1" source="_HaAn8n10JLx-krKhR4f-22" target="_HaAn8n10JLx-krKhR4f-58" edge="1">
          <mxGeometry relative="1" as="geometry" />
        </mxCell>
        <mxCell id="djYJTSTvmprYbiEXdusg-109" style="edgeStyle=orthogonalEdgeStyle;rounded=0;orthogonalLoop=1;jettySize=auto;html=1;exitX=1;exitY=0.5;exitDx=0;exitDy=0;entryX=0;entryY=0.5;entryDx=0;entryDy=0;" parent="1" source="_HaAn8n10JLx-krKhR4f-22" target="_HaAn8n10JLx-krKhR4f-59" edge="1">
          <mxGeometry relative="1" as="geometry" />
        </mxCell>
        <mxCell id="_HaAn8n10JLx-krKhR4f-22" value="LOCALES" style="rounded=0;whiteSpace=wrap;html=1;" parent="1" vertex="1">
          <mxGeometry x="603.13" y="615" width="120" height="60" as="geometry" />
        </mxCell>
        <mxCell id="As_d3XrpgWwLYWxegH64-16" style="edgeStyle=orthogonalEdgeStyle;rounded=0;orthogonalLoop=1;jettySize=auto;html=1;exitX=0.5;exitY=1;exitDx=0;exitDy=0;entryX=0;entryY=0.5;entryDx=0;entryDy=0;" edge="1" parent="1" source="_HaAn8n10JLx-krKhR4f-45" target="As_d3XrpgWwLYWxegH64-15">
          <mxGeometry relative="1" as="geometry" />
        </mxCell>
        <mxCell id="_HaAn8n10JLx-krKhR4f-45" value="PISOS" style="rounded=0;whiteSpace=wrap;html=1;" parent="1" vertex="1">
          <mxGeometry x="451.25" y="630" width="120" height="60" as="geometry" />
        </mxCell>
        <mxCell id="_HaAn8n10JLx-krKhR4f-46" value="GARAJE" style="rounded=0;whiteSpace=wrap;html=1;" parent="1" vertex="1">
          <mxGeometry x="768.13" y="630" width="120" height="60" as="geometry" />
        </mxCell>
        <mxCell id="As_d3XrpgWwLYWxegH64-6" style="edgeStyle=orthogonalEdgeStyle;rounded=0;orthogonalLoop=1;jettySize=auto;html=1;exitX=1;exitY=0.5;exitDx=0;exitDy=0;" edge="1" parent="1" source="_HaAn8n10JLx-krKhR4f-47" target="_HaAn8n10JLx-krKhR4f-22">
          <mxGeometry relative="1" as="geometry" />
        </mxCell>
        <mxCell id="As_d3XrpgWwLYWxegH64-7" style="edgeStyle=orthogonalEdgeStyle;rounded=0;orthogonalLoop=1;jettySize=auto;html=1;exitX=1;exitY=0.5;exitDx=0;exitDy=0;entryX=0.5;entryY=0;entryDx=0;entryDy=0;" edge="1" parent="1" source="_HaAn8n10JLx-krKhR4f-47" target="_HaAn8n10JLx-krKhR4f-46">
          <mxGeometry relative="1" as="geometry" />
        </mxCell>
        <mxCell id="As_d3XrpgWwLYWxegH64-8" style="edgeStyle=orthogonalEdgeStyle;rounded=0;orthogonalLoop=1;jettySize=auto;html=1;exitX=1;exitY=0.5;exitDx=0;exitDy=0;entryX=0.5;entryY=0;entryDx=0;entryDy=0;" edge="1" parent="1" source="_HaAn8n10JLx-krKhR4f-47" target="_HaAn8n10JLx-krKhR4f-45">
          <mxGeometry relative="1" as="geometry" />
        </mxCell>
        <mxCell id="_HaAn8n10JLx-krKhR4f-47" value="IS A" style="triangle;whiteSpace=wrap;html=1;direction=south;" parent="1" vertex="1">
          <mxGeometry x="627.5" y="465" width="70" height="50" as="geometry" />
        </mxCell>
        <mxCell id="_HaAn8n10JLx-krKhR4f-58" value="planta" style="ellipse;whiteSpace=wrap;html=1;" parent="1" vertex="1">
          <mxGeometry x="888.13" y="650" width="110" height="40" as="geometry" />
        </mxCell>
        <mxCell id="_HaAn8n10JLx-krKhR4f-59" value="número" style="ellipse;whiteSpace=wrap;html=1;" parent="1" vertex="1">
          <mxGeometry x="888.13" y="700" width="110" height="40" as="geometry" />
        </mxCell>
        <mxCell id="25eURDqm_NGz2v3mhzRY-2" value="realiza" style="rhombus;whiteSpace=wrap;html=1;" parent="1" vertex="1">
          <mxGeometry x="-165" y="290" width="90" height="50" as="geometry" />
        </mxCell>
        <mxCell id="djYJTSTvmprYbiEXdusg-100" style="edgeStyle=orthogonalEdgeStyle;rounded=0;orthogonalLoop=1;jettySize=auto;html=1;exitX=0.5;exitY=1;exitDx=0;exitDy=0;entryX=0;entryY=0.5;entryDx=0;entryDy=0;" parent="1" source="25eURDqm_NGz2v3mhzRY-8" target="As_d3XrpgWwLYWxegH64-12" edge="1">
          <mxGeometry relative="1" as="geometry">
            <mxPoint x="110" y="670" as="targetPoint" />
            <Array as="points">
              <mxPoint x="100" y="590" />
              <mxPoint x="210" y="590" />
              <mxPoint x="210" y="390" />
            </Array>
          </mxGeometry>
        </mxCell>
        <mxCell id="25eURDqm_NGz2v3mhzRY-8" value="COMPRA" style="shape=ext;margin=3;double=1;whiteSpace=wrap;html=1;align=center;" parent="1" vertex="1">
          <mxGeometry x="50" y="530" width="100" height="40" as="geometry" />
        </mxCell>
        <mxCell id="As_d3XrpgWwLYWxegH64-2" style="edgeStyle=orthogonalEdgeStyle;rounded=0;orthogonalLoop=1;jettySize=auto;html=1;exitX=0.5;exitY=1;exitDx=0;exitDy=0;entryX=0;entryY=0.5;entryDx=0;entryDy=0;" edge="1" parent="1" source="djYJTSTvmprYbiEXdusg-83" target="As_d3XrpgWwLYWxegH64-29">
          <mxGeometry relative="1" as="geometry">
            <mxPoint x="-104.40000000000009" y="510.0149999999999" as="targetPoint" />
          </mxGeometry>
        </mxCell>
        <mxCell id="As_d3XrpgWwLYWxegH64-49" style="edgeStyle=orthogonalEdgeStyle;rounded=0;orthogonalLoop=1;jettySize=auto;html=1;exitX=0.25;exitY=1;exitDx=0;exitDy=0;entryX=1;entryY=0.5;entryDx=0;entryDy=0;" edge="1" parent="1" source="djYJTSTvmprYbiEXdusg-83" target="As_d3XrpgWwLYWxegH64-20">
          <mxGeometry relative="1" as="geometry" />
        </mxCell>
        <mxCell id="As_d3XrpgWwLYWxegH64-50" style="edgeStyle=orthogonalEdgeStyle;rounded=0;orthogonalLoop=1;jettySize=auto;html=1;exitX=0.25;exitY=1;exitDx=0;exitDy=0;entryX=1;entryY=0.5;entryDx=0;entryDy=0;" edge="1" parent="1" source="djYJTSTvmprYbiEXdusg-83" target="As_d3XrpgWwLYWxegH64-19">
          <mxGeometry relative="1" as="geometry" />
        </mxCell>
        <mxCell id="djYJTSTvmprYbiEXdusg-83" value="ALQUILER" style="shape=ext;margin=3;double=1;whiteSpace=wrap;html=1;align=center;" parent="1" vertex="1">
          <mxGeometry x="-170.01" y="420" width="131.25" height="60" as="geometry" />
        </mxCell>
        <mxCell id="djYJTSTvmprYbiEXdusg-85" value="&lt;u&gt;Id.Cliente&lt;/u&gt;" style="ellipse;whiteSpace=wrap;html=1;" parent="1" vertex="1">
          <mxGeometry x="-40" y="310" width="80" height="40" as="geometry" />
        </mxCell>
        <mxCell id="djYJTSTvmprYbiEXdusg-90" style="edgeStyle=orthogonalEdgeStyle;rounded=0;orthogonalLoop=1;jettySize=auto;html=1;exitX=0.5;exitY=1;exitDx=0;exitDy=0;entryX=0.92;entryY=-0.05;entryDx=0;entryDy=0;entryPerimeter=0;" parent="1" target="25eURDqm_NGz2v3mhzRY-8" edge="1">
          <mxGeometry relative="1" as="geometry">
            <mxPoint x="160" y="505" as="sourcePoint" />
          </mxGeometry>
        </mxCell>
        <mxCell id="djYJTSTvmprYbiEXdusg-93" style="edgeStyle=orthogonalEdgeStyle;rounded=0;orthogonalLoop=1;jettySize=auto;html=1;exitX=0.5;exitY=1;exitDx=0;exitDy=0;entryX=0.366;entryY=-0.033;entryDx=0;entryDy=0;entryPerimeter=0;" parent="1" source="25eURDqm_NGz2v3mhzRY-2" target="djYJTSTvmprYbiEXdusg-83" edge="1">
          <mxGeometry relative="1" as="geometry" />
        </mxCell>
        <mxCell id="djYJTSTvmprYbiEXdusg-97" value="&lt;u&gt;Cód. Persona&lt;/u&gt;" style="ellipse;whiteSpace=wrap;html=1;" parent="1" vertex="1">
          <mxGeometry x="-130" y="-30" width="100" height="40" as="geometry" />
        </mxCell>
        <mxCell id="_HaAn8n10JLx-krKhR4f-52" value="" style="shape=requiredInterface;html=1;verticalLabelPosition=bottom;sketch=0;direction=south;" parent="1" vertex="1">
          <mxGeometry x="635" y="515" width="55" height="25" as="geometry" />
        </mxCell>
        <mxCell id="As_d3XrpgWwLYWxegH64-14" value="" style="edgeStyle=orthogonalEdgeStyle;rounded=0;orthogonalLoop=1;jettySize=auto;html=1;" edge="1" parent="1" source="As_d3XrpgWwLYWxegH64-11" target="_HaAn8n10JLx-krKhR4f-47">
          <mxGeometry relative="1" as="geometry" />
        </mxCell>
        <mxCell id="As_d3XrpgWwLYWxegH64-24" style="edgeStyle=orthogonalEdgeStyle;rounded=0;orthogonalLoop=1;jettySize=auto;html=1;exitX=0.5;exitY=0;exitDx=0;exitDy=0;entryX=0;entryY=0.5;entryDx=0;entryDy=0;" edge="1" parent="1" source="As_d3XrpgWwLYWxegH64-11" target="As_d3XrpgWwLYWxegH64-22">
          <mxGeometry relative="1" as="geometry" />
        </mxCell>
        <mxCell id="As_d3XrpgWwLYWxegH64-41" style="edgeStyle=orthogonalEdgeStyle;rounded=0;orthogonalLoop=1;jettySize=auto;html=1;exitX=1;exitY=0.5;exitDx=0;exitDy=0;entryX=0;entryY=0.5;entryDx=0;entryDy=0;" edge="1" parent="1" source="As_d3XrpgWwLYWxegH64-11" target="_HaAn8n10JLx-krKhR4f-41">
          <mxGeometry relative="1" as="geometry" />
        </mxCell>
        <mxCell id="As_d3XrpgWwLYWxegH64-42" style="edgeStyle=orthogonalEdgeStyle;rounded=0;orthogonalLoop=1;jettySize=auto;html=1;exitX=1;exitY=0.5;exitDx=0;exitDy=0;entryX=0;entryY=0.5;entryDx=0;entryDy=0;" edge="1" parent="1" source="As_d3XrpgWwLYWxegH64-11" target="_HaAn8n10JLx-krKhR4f-39">
          <mxGeometry relative="1" as="geometry" />
        </mxCell>
        <mxCell id="As_d3XrpgWwLYWxegH64-44" style="edgeStyle=orthogonalEdgeStyle;rounded=0;orthogonalLoop=1;jettySize=auto;html=1;exitX=1;exitY=0.5;exitDx=0;exitDy=0;entryX=0;entryY=0.5;entryDx=0;entryDy=0;" edge="1" parent="1" source="As_d3XrpgWwLYWxegH64-11" target="_HaAn8n10JLx-krKhR4f-38">
          <mxGeometry relative="1" as="geometry" />
        </mxCell>
        <mxCell id="As_d3XrpgWwLYWxegH64-45" style="edgeStyle=orthogonalEdgeStyle;rounded=0;orthogonalLoop=1;jettySize=auto;html=1;exitX=1;exitY=0.5;exitDx=0;exitDy=0;entryX=0;entryY=0.5;entryDx=0;entryDy=0;" edge="1" parent="1" source="As_d3XrpgWwLYWxegH64-11" target="_HaAn8n10JLx-krKhR4f-37">
          <mxGeometry relative="1" as="geometry" />
        </mxCell>
        <mxCell id="As_d3XrpgWwLYWxegH64-11" value="INMUEBLES" style="rounded=0;whiteSpace=wrap;html=1;" vertex="1" parent="1">
          <mxGeometry x="588.75" y="325" width="120" height="60" as="geometry" />
        </mxCell>
        <mxCell id="As_d3XrpgWwLYWxegH64-13" style="edgeStyle=orthogonalEdgeStyle;rounded=0;orthogonalLoop=1;jettySize=auto;html=1;exitX=1;exitY=0.5;exitDx=0;exitDy=0;entryX=0;entryY=0.5;entryDx=0;entryDy=0;" edge="1" parent="1" source="As_d3XrpgWwLYWxegH64-12" target="As_d3XrpgWwLYWxegH64-11">
          <mxGeometry relative="1" as="geometry" />
        </mxCell>
        <mxCell id="As_d3XrpgWwLYWxegH64-12" value="Tiene" style="rhombus;whiteSpace=wrap;html=1;" vertex="1" parent="1">
          <mxGeometry x="355" y="360" width="70" height="60" as="geometry" />
        </mxCell>
        <mxCell id="As_d3XrpgWwLYWxegH64-15" value="Asociado" style="rhombus;whiteSpace=wrap;html=1;" vertex="1" parent="1">
          <mxGeometry x="626.88" y="740" width="80" height="80" as="geometry" />
        </mxCell>
        <mxCell id="As_d3XrpgWwLYWxegH64-17" style="edgeStyle=orthogonalEdgeStyle;rounded=0;orthogonalLoop=1;jettySize=auto;html=1;exitX=1;exitY=0.5;exitDx=0;exitDy=0;entryX=0.182;entryY=1.05;entryDx=0;entryDy=0;entryPerimeter=0;" edge="1" parent="1" source="As_d3XrpgWwLYWxegH64-15" target="_HaAn8n10JLx-krKhR4f-46">
          <mxGeometry relative="1" as="geometry" />
        </mxCell>
        <mxCell id="As_d3XrpgWwLYWxegH64-19" value="Fecha" style="ellipse;whiteSpace=wrap;html=1;" vertex="1" parent="1">
          <mxGeometry x="-260" y="570" width="100" height="40" as="geometry" />
        </mxCell>
        <mxCell id="As_d3XrpgWwLYWxegH64-20" value="Valor" style="ellipse;whiteSpace=wrap;html=1;" vertex="1" parent="1">
          <mxGeometry x="-250" y="530" width="90" height="40" as="geometry" />
        </mxCell>
        <mxCell id="As_d3XrpgWwLYWxegH64-21" value="id. Alquiler" style="ellipse;whiteSpace=wrap;html=1;" vertex="1" parent="1">
          <mxGeometry x="-250" y="490" width="90" height="40" as="geometry" />
        </mxCell>
        <mxCell id="As_d3XrpgWwLYWxegH64-25" style="edgeStyle=orthogonalEdgeStyle;rounded=0;orthogonalLoop=1;jettySize=auto;html=1;exitX=1;exitY=0.5;exitDx=0;exitDy=0;entryX=0.5;entryY=1;entryDx=0;entryDy=0;" edge="1" parent="1" source="As_d3XrpgWwLYWxegH64-22" target="As_d3XrpgWwLYWxegH64-23">
          <mxGeometry relative="1" as="geometry" />
        </mxCell>
        <mxCell id="As_d3XrpgWwLYWxegH64-22" value="Está" style="rhombus;whiteSpace=wrap;html=1;" vertex="1" parent="1">
          <mxGeometry x="743" y="140" width="77" height="50" as="geometry" />
        </mxCell>
        <mxCell id="As_d3XrpgWwLYWxegH64-27" style="edgeStyle=orthogonalEdgeStyle;rounded=0;orthogonalLoop=1;jettySize=auto;html=1;exitX=0.75;exitY=0;exitDx=0;exitDy=0;entryX=0;entryY=0.5;entryDx=0;entryDy=0;" edge="1" parent="1" source="As_d3XrpgWwLYWxegH64-23" target="As_d3XrpgWwLYWxegH64-26">
          <mxGeometry relative="1" as="geometry" />
        </mxCell>
        <mxCell id="As_d3XrpgWwLYWxegH64-23" value="Edificio" style="rounded=0;whiteSpace=wrap;html=1;" vertex="1" parent="1">
          <mxGeometry x="840" y="40" width="120" height="60" as="geometry" />
        </mxCell>
        <mxCell id="As_d3XrpgWwLYWxegH64-26" value="Id. Edificio" style="ellipse;whiteSpace=wrap;html=1;" vertex="1" parent="1">
          <mxGeometry x="980" y="-5" width="110" height="45" as="geometry" />
        </mxCell>
        <mxCell id="As_d3XrpgWwLYWxegH64-30" style="edgeStyle=orthogonalEdgeStyle;rounded=0;orthogonalLoop=1;jettySize=auto;html=1;exitX=1;exitY=0.5;exitDx=0;exitDy=0;entryX=0.25;entryY=1;entryDx=0;entryDy=0;" edge="1" parent="1" source="As_d3XrpgWwLYWxegH64-29" target="As_d3XrpgWwLYWxegH64-11">
          <mxGeometry relative="1" as="geometry">
            <Array as="points">
              <mxPoint x="250" y="710" />
              <mxPoint x="250" y="550" />
              <mxPoint x="619" y="550" />
            </Array>
          </mxGeometry>
        </mxCell>
        <mxCell id="As_d3XrpgWwLYWxegH64-29" value="tiene" style="rhombus;whiteSpace=wrap;html=1;" vertex="1" parent="1">
          <mxGeometry x="215" y="680" width="80" height="60" as="geometry" />
        </mxCell>
        <mxCell id="As_d3XrpgWwLYWxegH64-31" value="movil" style="ellipse;whiteSpace=wrap;html=1;" vertex="1" parent="1">
          <mxGeometry x="-128.76" y="-90" width="90" height="30" as="geometry" />
        </mxCell>
        <mxCell id="As_d3XrpgWwLYWxegH64-32" value="DNI" style="ellipse;whiteSpace=wrap;html=1;" vertex="1" parent="1">
          <mxGeometry x="-130" y="-120" width="90" height="30" as="geometry" />
        </mxCell>
        <mxCell id="As_d3XrpgWwLYWxegH64-33" value="tlf fijo" style="ellipse;whiteSpace=wrap;html=1;" vertex="1" parent="1">
          <mxGeometry x="-128.76" y="-60" width="90" height="30" as="geometry" />
        </mxCell>
        <mxCell id="As_d3XrpgWwLYWxegH64-35" value="nombre y apellidos" style="ellipse;whiteSpace=wrap;html=1;" vertex="1" parent="1">
          <mxGeometry x="-130" y="-160" width="90" height="40" as="geometry" />
        </mxCell>
        <mxCell id="As_d3XrpgWwLYWxegH64-40" style="edgeStyle=orthogonalEdgeStyle;rounded=0;orthogonalLoop=1;jettySize=auto;html=1;exitX=1;exitY=0.5;exitDx=0;exitDy=0;entryX=0;entryY=0.5;entryDx=0;entryDy=0;" edge="1" parent="1" source="As_d3XrpgWwLYWxegH64-38" target="djYJTSTvmprYbiEXdusg-83">
          <mxGeometry relative="1" as="geometry" />
        </mxCell>
        <mxCell id="As_d3XrpgWwLYWxegH64-38" value="REALIZA" style="rhombus;whiteSpace=wrap;html=1;direction=south;" vertex="1" parent="1">
          <mxGeometry x="-327.5" y="350" width="75" height="65" as="geometry" />
        </mxCell>
        <mxCell id="As_d3XrpgWwLYWxegH64-48" style="edgeStyle=orthogonalEdgeStyle;rounded=0;orthogonalLoop=1;jettySize=auto;html=1;exitX=0.25;exitY=1;exitDx=0;exitDy=0;entryX=1.044;entryY=0.725;entryDx=0;entryDy=0;entryPerimeter=0;" edge="1" parent="1" source="djYJTSTvmprYbiEXdusg-83" target="As_d3XrpgWwLYWxegH64-21">
          <mxGeometry relative="1" as="geometry" />
        </mxCell>
        <mxCell id="As_d3XrpgWwLYWxegH64-51" value="1:N" style="text;html=1;align=center;verticalAlign=middle;resizable=0;points=[];autosize=1;strokeColor=none;fillColor=none;" vertex="1" parent="1">
          <mxGeometry x="-400" y="368" width="40" height="30" as="geometry" />
        </mxCell>
        <mxCell id="As_d3XrpgWwLYWxegH64-52" value="(1,1)" style="text;html=1;align=center;verticalAlign=middle;resizable=0;points=[];autosize=1;strokeColor=none;fillColor=none;" vertex="1" parent="1">
          <mxGeometry x="-330" y="250" width="50" height="30" as="geometry" />
        </mxCell>
        <mxCell id="As_d3XrpgWwLYWxegH64-53" value="(1,n)" style="text;html=1;align=center;verticalAlign=middle;resizable=0;points=[];autosize=1;strokeColor=none;fillColor=none;" vertex="1" parent="1">
          <mxGeometry x="-215" y="418" width="50" height="30" as="geometry" />
        </mxCell>
        <mxCell id="As_d3XrpgWwLYWxegH64-54" value="1:N" style="text;html=1;align=center;verticalAlign=middle;resizable=0;points=[];autosize=1;strokeColor=none;fillColor=none;" vertex="1" parent="1">
          <mxGeometry x="-200" y="298" width="40" height="30" as="geometry" />
        </mxCell>
        <mxCell id="As_d3XrpgWwLYWxegH64-55" value="(1,1)" style="text;html=1;align=center;verticalAlign=middle;resizable=0;points=[];autosize=1;strokeColor=none;fillColor=none;" vertex="1" parent="1">
          <mxGeometry x="35" y="278" width="50" height="30" as="geometry" />
        </mxCell>
        <mxCell id="As_d3XrpgWwLYWxegH64-56" value="(1,n)" style="text;html=1;align=center;verticalAlign=middle;resizable=0;points=[];autosize=1;strokeColor=none;fillColor=none;" vertex="1" parent="1">
          <mxGeometry x="-125" y="398" width="50" height="30" as="geometry" />
        </mxCell>
        <mxCell id="As_d3XrpgWwLYWxegH64-57" value="1:N" style="text;html=1;align=center;verticalAlign=middle;resizable=0;points=[];autosize=1;strokeColor=none;fillColor=none;" vertex="1" parent="1">
          <mxGeometry x="370" y="328" width="40" height="30" as="geometry" />
        </mxCell>
        <mxCell id="As_d3XrpgWwLYWxegH64-58" value="(1,n)" style="text;html=1;align=center;verticalAlign=middle;resizable=0;points=[];autosize=1;strokeColor=none;fillColor=none;" vertex="1" parent="1">
          <mxGeometry x="-115" y="478" width="50" height="30" as="geometry" />
        </mxCell>
        <mxCell id="As_d3XrpgWwLYWxegH64-59" value="(1,1)" style="text;html=1;align=center;verticalAlign=middle;resizable=0;points=[];autosize=1;strokeColor=none;fillColor=none;" vertex="1" parent="1">
          <mxGeometry x="568.75" y="385" width="50" height="30" as="geometry" />
        </mxCell>
        <mxCell id="As_d3XrpgWwLYWxegH64-60" value="1:N" style="text;html=1;align=center;verticalAlign=middle;resizable=0;points=[];autosize=1;strokeColor=none;fillColor=none;" vertex="1" parent="1">
          <mxGeometry x="230" y="738" width="40" height="30" as="geometry" />
        </mxCell>
        <mxCell id="As_d3XrpgWwLYWxegH64-61" value="(1,n)" style="text;html=1;align=center;verticalAlign=middle;resizable=0;points=[];autosize=1;strokeColor=none;fillColor=none;" vertex="1" parent="1">
          <mxGeometry x="45" y="568" width="50" height="30" as="geometry" />
        </mxCell>
        <mxCell id="As_d3XrpgWwLYWxegH64-62" value="(1,1)" style="text;html=1;align=center;verticalAlign=middle;resizable=0;points=[];autosize=1;strokeColor=none;fillColor=none;" vertex="1" parent="1">
          <mxGeometry x="535" y="328" width="50" height="30" as="geometry" />
        </mxCell>
        <mxCell id="As_d3XrpgWwLYWxegH64-63" value="N:M" style="text;html=1;align=center;verticalAlign=middle;resizable=0;points=[];autosize=1;strokeColor=none;fillColor=none;" vertex="1" parent="1">
          <mxGeometry x="15" y="408" width="50" height="30" as="geometry" />
        </mxCell>
        <mxCell id="As_d3XrpgWwLYWxegH64-64" value="(1,n)" style="text;html=1;align=center;verticalAlign=middle;resizable=0;points=[];autosize=1;strokeColor=none;fillColor=none;" vertex="1" parent="1">
          <mxGeometry x="55" y="368" width="50" height="30" as="geometry" />
        </mxCell>
        <mxCell id="As_d3XrpgWwLYWxegH64-65" value="(1,n)" style="text;html=1;align=center;verticalAlign=middle;resizable=0;points=[];autosize=1;strokeColor=none;fillColor=none;" vertex="1" parent="1">
          <mxGeometry x="55" y="498" width="50" height="30" as="geometry" />
        </mxCell>
        <mxCell id="As_d3XrpgWwLYWxegH64-66" value="1:N" style="text;html=1;align=center;verticalAlign=middle;resizable=0;points=[];autosize=1;strokeColor=none;fillColor=none;" vertex="1" parent="1">
          <mxGeometry x="650" y="818" width="40" height="30" as="geometry" />
        </mxCell>
        <mxCell id="As_d3XrpgWwLYWxegH64-67" value="(1,1)" style="text;html=1;align=center;verticalAlign=middle;resizable=0;points=[];autosize=1;strokeColor=none;fillColor=none;" vertex="1" parent="1">
          <mxGeometry x="465" y="688" width="50" height="30" as="geometry" />
        </mxCell>
        <mxCell id="As_d3XrpgWwLYWxegH64-68" value="(1,n)" style="text;html=1;align=center;verticalAlign=middle;resizable=0;points=[];autosize=1;strokeColor=none;fillColor=none;" vertex="1" parent="1">
          <mxGeometry x="745" y="688" width="50" height="30" as="geometry" />
        </mxCell>
        <mxCell id="As_d3XrpgWwLYWxegH64-69" value="(1,1)" style="text;html=1;align=center;verticalAlign=middle;resizable=0;points=[];autosize=1;strokeColor=none;fillColor=none;" vertex="1" parent="1">
          <mxGeometry x="855" y="98" width="50" height="30" as="geometry" />
        </mxCell>
        <mxCell id="As_d3XrpgWwLYWxegH64-70" value="(1,n)" style="text;html=1;align=center;verticalAlign=middle;resizable=0;points=[];autosize=1;strokeColor=none;fillColor=none;" vertex="1" parent="1">
          <mxGeometry x="635" y="298" width="50" height="30" as="geometry" />
        </mxCell>
        <mxCell id="As_d3XrpgWwLYWxegH64-71" value="1:N" style="text;html=1;align=center;verticalAlign=middle;resizable=0;points=[];autosize=1;strokeColor=none;fillColor=none;" vertex="1" parent="1">
          <mxGeometry x="760" y="108" width="40" height="30" as="geometry" />
        </mxCell>
        <mxCell id="As_d3XrpgWwLYWxegH64-72" value="Wc&amp;nbsp;&lt;br&gt;si&lt;br&gt;no" style="ellipse;whiteSpace=wrap;html=1;" vertex="1" parent="1">
          <mxGeometry x="656.88" y="680" width="100" height="30" as="geometry" />
        </mxCell>
        <mxCell id="As_d3XrpgWwLYWxegH64-73" value="id.Local" style="ellipse;whiteSpace=wrap;html=1;" vertex="1" parent="1">
          <mxGeometry x="585" y="695" width="90" height="30" as="geometry" />
        </mxCell>
        <mxCell id="As_d3XrpgWwLYWxegH64-74" value="Nº Compra" style="ellipse;whiteSpace=wrap;html=1;" vertex="1" parent="1">
          <mxGeometry x="50" y="610" width="90" height="30" as="geometry" />
        </mxCell>
        <mxCell id="As_d3XrpgWwLYWxegH64-75" value="Valor" style="ellipse;whiteSpace=wrap;html=1;" vertex="1" parent="1">
          <mxGeometry x="50" y="670" width="90" height="30" as="geometry" />
        </mxCell>
        <mxCell id="As_d3XrpgWwLYWxegH64-76" value="Fecha" style="ellipse;whiteSpace=wrap;html=1;" vertex="1" parent="1">
          <mxGeometry x="50" y="640" width="90" height="30" as="geometry" />
        </mxCell>
        <mxCell id="As_d3XrpgWwLYWxegH64-77" value="Personas" style="shape=table;startSize=30;container=1;collapsible=1;childLayout=tableLayout;fixedRows=1;rowLines=0;fontStyle=1;align=center;resizeLast=1;html=1;" vertex="1" parent="1">
          <mxGeometry x="20" y="830" width="180" height="170" as="geometry" />
        </mxCell>
        <mxCell id="As_d3XrpgWwLYWxegH64-78" value="" style="shape=tableRow;horizontal=0;startSize=0;swimlaneHead=0;swimlaneBody=0;fillColor=none;collapsible=0;dropTarget=0;points=[[0,0.5],[1,0.5]];portConstraint=eastwest;top=0;left=0;right=0;bottom=1;" vertex="1" parent="As_d3XrpgWwLYWxegH64-77">
          <mxGeometry y="30" width="180" height="30" as="geometry" />
        </mxCell>
        <mxCell id="As_d3XrpgWwLYWxegH64-79" value="PK" style="shape=partialRectangle;connectable=0;fillColor=none;top=0;left=0;bottom=0;right=0;fontStyle=1;overflow=hidden;whiteSpace=wrap;html=1;" vertex="1" parent="As_d3XrpgWwLYWxegH64-78">
          <mxGeometry width="30" height="30" as="geometry">
            <mxRectangle width="30" height="30" as="alternateBounds" />
          </mxGeometry>
        </mxCell>
        <mxCell id="As_d3XrpgWwLYWxegH64-80" value="DNI" style="shape=partialRectangle;connectable=0;fillColor=none;top=0;left=0;bottom=0;right=0;align=left;spacingLeft=6;fontStyle=5;overflow=hidden;whiteSpace=wrap;html=1;" vertex="1" parent="As_d3XrpgWwLYWxegH64-78">
          <mxGeometry x="30" width="150" height="30" as="geometry">
            <mxRectangle width="150" height="30" as="alternateBounds" />
          </mxGeometry>
        </mxCell>
        <mxCell id="As_d3XrpgWwLYWxegH64-81" value="" style="shape=tableRow;horizontal=0;startSize=0;swimlaneHead=0;swimlaneBody=0;fillColor=none;collapsible=0;dropTarget=0;points=[[0,0.5],[1,0.5]];portConstraint=eastwest;top=0;left=0;right=0;bottom=0;" vertex="1" parent="As_d3XrpgWwLYWxegH64-77">
          <mxGeometry y="60" width="180" height="30" as="geometry" />
        </mxCell>
        <mxCell id="As_d3XrpgWwLYWxegH64-82" value="UK" style="shape=partialRectangle;connectable=0;fillColor=none;top=0;left=0;bottom=0;right=0;editable=1;overflow=hidden;whiteSpace=wrap;html=1;" vertex="1" parent="As_d3XrpgWwLYWxegH64-81">
          <mxGeometry width="30" height="30" as="geometry">
            <mxRectangle width="30" height="30" as="alternateBounds" />
          </mxGeometry>
        </mxCell>
        <mxCell id="As_d3XrpgWwLYWxegH64-83" value="Cod. Persona" style="shape=partialRectangle;connectable=0;fillColor=none;top=0;left=0;bottom=0;right=0;align=left;spacingLeft=6;overflow=hidden;whiteSpace=wrap;html=1;" vertex="1" parent="As_d3XrpgWwLYWxegH64-81">
          <mxGeometry x="30" width="150" height="30" as="geometry">
            <mxRectangle width="150" height="30" as="alternateBounds" />
          </mxGeometry>
        </mxCell>
        <mxCell id="As_d3XrpgWwLYWxegH64-84" value="" style="shape=tableRow;horizontal=0;startSize=0;swimlaneHead=0;swimlaneBody=0;fillColor=none;collapsible=0;dropTarget=0;points=[[0,0.5],[1,0.5]];portConstraint=eastwest;top=0;left=0;right=0;bottom=0;" vertex="1" parent="As_d3XrpgWwLYWxegH64-77">
          <mxGeometry y="90" width="180" height="30" as="geometry" />
        </mxCell>
        <mxCell id="As_d3XrpgWwLYWxegH64-85" value="" style="shape=partialRectangle;connectable=0;fillColor=none;top=0;left=0;bottom=0;right=0;editable=1;overflow=hidden;whiteSpace=wrap;html=1;" vertex="1" parent="As_d3XrpgWwLYWxegH64-84">
          <mxGeometry width="30" height="30" as="geometry">
            <mxRectangle width="30" height="30" as="alternateBounds" />
          </mxGeometry>
        </mxCell>
        <mxCell id="As_d3XrpgWwLYWxegH64-86" value="Nombre&lt;br&gt;" style="shape=partialRectangle;connectable=0;fillColor=none;top=0;left=0;bottom=0;right=0;align=left;spacingLeft=6;overflow=hidden;whiteSpace=wrap;html=1;" vertex="1" parent="As_d3XrpgWwLYWxegH64-84">
          <mxGeometry x="30" width="150" height="30" as="geometry">
            <mxRectangle width="150" height="30" as="alternateBounds" />
          </mxGeometry>
        </mxCell>
        <mxCell id="As_d3XrpgWwLYWxegH64-87" value="" style="shape=tableRow;horizontal=0;startSize=0;swimlaneHead=0;swimlaneBody=0;fillColor=none;collapsible=0;dropTarget=0;points=[[0,0.5],[1,0.5]];portConstraint=eastwest;top=0;left=0;right=0;bottom=0;" vertex="1" parent="As_d3XrpgWwLYWxegH64-77">
          <mxGeometry y="120" width="180" height="50" as="geometry" />
        </mxCell>
        <mxCell id="As_d3XrpgWwLYWxegH64-88" value="" style="shape=partialRectangle;connectable=0;fillColor=none;top=0;left=0;bottom=0;right=0;editable=1;overflow=hidden;whiteSpace=wrap;html=1;" vertex="1" parent="As_d3XrpgWwLYWxegH64-87">
          <mxGeometry width="30" height="50" as="geometry">
            <mxRectangle width="30" height="50" as="alternateBounds" />
          </mxGeometry>
        </mxCell>
        <mxCell id="As_d3XrpgWwLYWxegH64-89" value="Apellido&lt;br&gt;telf" style="shape=partialRectangle;connectable=0;fillColor=none;top=0;left=0;bottom=0;right=0;align=left;spacingLeft=6;overflow=hidden;whiteSpace=wrap;html=1;" vertex="1" parent="As_d3XrpgWwLYWxegH64-87">
          <mxGeometry x="30" width="150" height="50" as="geometry">
            <mxRectangle width="150" height="50" as="alternateBounds" />
          </mxGeometry>
        </mxCell>
        <mxCell id="As_d3XrpgWwLYWxegH64-90" value="Cliente" style="shape=table;startSize=30;container=1;collapsible=1;childLayout=tableLayout;fixedRows=1;rowLines=0;fontStyle=1;align=center;resizeLast=1;html=1;" vertex="1" parent="1">
          <mxGeometry x="-140" y="1040" width="180" height="60" as="geometry" />
        </mxCell>
        <mxCell id="As_d3XrpgWwLYWxegH64-91" value="" style="shape=tableRow;horizontal=0;startSize=0;swimlaneHead=0;swimlaneBody=0;fillColor=none;collapsible=0;dropTarget=0;points=[[0,0.5],[1,0.5]];portConstraint=eastwest;top=0;left=0;right=0;bottom=1;" vertex="1" parent="As_d3XrpgWwLYWxegH64-90">
          <mxGeometry y="30" width="180" height="30" as="geometry" />
        </mxCell>
        <mxCell id="As_d3XrpgWwLYWxegH64-92" value="PK FK" style="shape=partialRectangle;connectable=0;fillColor=none;top=0;left=0;bottom=0;right=0;fontStyle=1;overflow=hidden;whiteSpace=wrap;html=1;" vertex="1" parent="As_d3XrpgWwLYWxegH64-91">
          <mxGeometry width="30" height="30" as="geometry">
            <mxRectangle width="30" height="30" as="alternateBounds" />
          </mxGeometry>
        </mxCell>
        <mxCell id="As_d3XrpgWwLYWxegH64-93" value="DNI" style="shape=partialRectangle;connectable=0;fillColor=none;top=0;left=0;bottom=0;right=0;align=left;spacingLeft=6;fontStyle=5;overflow=hidden;whiteSpace=wrap;html=1;" vertex="1" parent="As_d3XrpgWwLYWxegH64-91">
          <mxGeometry x="30" width="150" height="30" as="geometry">
            <mxRectangle width="150" height="30" as="alternateBounds" />
          </mxGeometry>
        </mxCell>
        <mxCell id="As_d3XrpgWwLYWxegH64-103" value="Trabajador" style="shape=table;startSize=30;container=1;collapsible=1;childLayout=tableLayout;fixedRows=1;rowLines=0;fontStyle=1;align=center;resizeLast=1;html=1;" vertex="1" parent="1">
          <mxGeometry x="160" y="1040" width="180" height="60" as="geometry" />
        </mxCell>
        <mxCell id="As_d3XrpgWwLYWxegH64-104" value="" style="shape=tableRow;horizontal=0;startSize=0;swimlaneHead=0;swimlaneBody=0;fillColor=none;collapsible=0;dropTarget=0;points=[[0,0.5],[1,0.5]];portConstraint=eastwest;top=0;left=0;right=0;bottom=1;" vertex="1" parent="As_d3XrpgWwLYWxegH64-103">
          <mxGeometry y="30" width="180" height="30" as="geometry" />
        </mxCell>
        <mxCell id="As_d3XrpgWwLYWxegH64-105" value="PK FK" style="shape=partialRectangle;connectable=0;fillColor=none;top=0;left=0;bottom=0;right=0;fontStyle=1;overflow=hidden;whiteSpace=wrap;html=1;" vertex="1" parent="As_d3XrpgWwLYWxegH64-104">
          <mxGeometry width="30" height="30" as="geometry">
            <mxRectangle width="30" height="30" as="alternateBounds" />
          </mxGeometry>
        </mxCell>
        <mxCell id="As_d3XrpgWwLYWxegH64-106" value="DNI" style="shape=partialRectangle;connectable=0;fillColor=none;top=0;left=0;bottom=0;right=0;align=left;spacingLeft=6;fontStyle=5;overflow=hidden;whiteSpace=wrap;html=1;" vertex="1" parent="As_d3XrpgWwLYWxegH64-104">
          <mxGeometry x="30" width="150" height="30" as="geometry">
            <mxRectangle width="150" height="30" as="alternateBounds" />
          </mxGeometry>
        </mxCell>
        <mxCell id="As_d3XrpgWwLYWxegH64-116" value="Inmueble" style="shape=table;startSize=30;container=1;collapsible=1;childLayout=tableLayout;fixedRows=1;rowLines=0;fontStyle=1;align=center;resizeLast=1;html=1;" vertex="1" parent="1">
          <mxGeometry x="572.5" y="1200" width="180" height="220" as="geometry" />
        </mxCell>
        <mxCell id="As_d3XrpgWwLYWxegH64-117" value="" style="shape=tableRow;horizontal=0;startSize=0;swimlaneHead=0;swimlaneBody=0;fillColor=none;collapsible=0;dropTarget=0;points=[[0,0.5],[1,0.5]];portConstraint=eastwest;top=0;left=0;right=0;bottom=1;" vertex="1" parent="As_d3XrpgWwLYWxegH64-116">
          <mxGeometry y="30" width="180" height="70" as="geometry" />
        </mxCell>
        <mxCell id="As_d3XrpgWwLYWxegH64-118" value="PK" style="shape=partialRectangle;connectable=0;fillColor=none;top=0;left=0;bottom=0;right=0;fontStyle=1;overflow=hidden;whiteSpace=wrap;html=1;" vertex="1" parent="As_d3XrpgWwLYWxegH64-117">
          <mxGeometry width="30" height="70" as="geometry">
            <mxRectangle width="30" height="70" as="alternateBounds" />
          </mxGeometry>
        </mxCell>
        <mxCell id="As_d3XrpgWwLYWxegH64-119" value="Id. Inmueble" style="shape=partialRectangle;connectable=0;fillColor=none;top=0;left=0;bottom=0;right=0;align=left;spacingLeft=6;fontStyle=5;overflow=hidden;whiteSpace=wrap;html=1;" vertex="1" parent="As_d3XrpgWwLYWxegH64-117">
          <mxGeometry x="30" width="150" height="70" as="geometry">
            <mxRectangle width="150" height="70" as="alternateBounds" />
          </mxGeometry>
        </mxCell>
        <mxCell id="As_d3XrpgWwLYWxegH64-260" value="" style="shape=tableRow;horizontal=0;startSize=0;swimlaneHead=0;swimlaneBody=0;fillColor=none;collapsible=0;dropTarget=0;points=[[0,0.5],[1,0.5]];portConstraint=eastwest;top=0;left=0;right=0;bottom=1;" vertex="1" parent="As_d3XrpgWwLYWxegH64-116">
          <mxGeometry y="100" width="180" height="30" as="geometry" />
        </mxCell>
        <mxCell id="As_d3XrpgWwLYWxegH64-261" value="PK" style="shape=partialRectangle;connectable=0;fillColor=none;top=0;left=0;bottom=0;right=0;fontStyle=1;overflow=hidden;whiteSpace=wrap;html=1;" vertex="1" parent="As_d3XrpgWwLYWxegH64-260">
          <mxGeometry width="30" height="30" as="geometry">
            <mxRectangle width="30" height="30" as="alternateBounds" />
          </mxGeometry>
        </mxCell>
        <mxCell id="As_d3XrpgWwLYWxegH64-262" value="Id. edific" style="shape=partialRectangle;connectable=0;fillColor=none;top=0;left=0;bottom=0;right=0;align=left;spacingLeft=6;fontStyle=5;overflow=hidden;whiteSpace=wrap;html=1;" vertex="1" parent="As_d3XrpgWwLYWxegH64-260">
          <mxGeometry x="30" width="150" height="30" as="geometry">
            <mxRectangle width="150" height="30" as="alternateBounds" />
          </mxGeometry>
        </mxCell>
        <mxCell id="As_d3XrpgWwLYWxegH64-120" value="" style="shape=tableRow;horizontal=0;startSize=0;swimlaneHead=0;swimlaneBody=0;fillColor=none;collapsible=0;dropTarget=0;points=[[0,0.5],[1,0.5]];portConstraint=eastwest;top=0;left=0;right=0;bottom=0;" vertex="1" parent="As_d3XrpgWwLYWxegH64-116">
          <mxGeometry y="130" width="180" height="30" as="geometry" />
        </mxCell>
        <mxCell id="As_d3XrpgWwLYWxegH64-121" value="" style="shape=partialRectangle;connectable=0;fillColor=none;top=0;left=0;bottom=0;right=0;editable=1;overflow=hidden;whiteSpace=wrap;html=1;" vertex="1" parent="As_d3XrpgWwLYWxegH64-120">
          <mxGeometry width="30" height="30" as="geometry">
            <mxRectangle width="30" height="30" as="alternateBounds" />
          </mxGeometry>
        </mxCell>
        <mxCell id="As_d3XrpgWwLYWxegH64-122" value="Metros" style="shape=partialRectangle;connectable=0;fillColor=none;top=0;left=0;bottom=0;right=0;align=left;spacingLeft=6;overflow=hidden;whiteSpace=wrap;html=1;" vertex="1" parent="As_d3XrpgWwLYWxegH64-120">
          <mxGeometry x="30" width="150" height="30" as="geometry">
            <mxRectangle width="150" height="30" as="alternateBounds" />
          </mxGeometry>
        </mxCell>
        <mxCell id="As_d3XrpgWwLYWxegH64-123" value="" style="shape=tableRow;horizontal=0;startSize=0;swimlaneHead=0;swimlaneBody=0;fillColor=none;collapsible=0;dropTarget=0;points=[[0,0.5],[1,0.5]];portConstraint=eastwest;top=0;left=0;right=0;bottom=0;" vertex="1" parent="As_d3XrpgWwLYWxegH64-116">
          <mxGeometry y="160" width="180" height="30" as="geometry" />
        </mxCell>
        <mxCell id="As_d3XrpgWwLYWxegH64-124" value="" style="shape=partialRectangle;connectable=0;fillColor=none;top=0;left=0;bottom=0;right=0;editable=1;overflow=hidden;whiteSpace=wrap;html=1;" vertex="1" parent="As_d3XrpgWwLYWxegH64-123">
          <mxGeometry width="30" height="30" as="geometry">
            <mxRectangle width="30" height="30" as="alternateBounds" />
          </mxGeometry>
        </mxCell>
        <mxCell id="As_d3XrpgWwLYWxegH64-125" value="descripcion" style="shape=partialRectangle;connectable=0;fillColor=none;top=0;left=0;bottom=0;right=0;align=left;spacingLeft=6;overflow=hidden;whiteSpace=wrap;html=1;" vertex="1" parent="As_d3XrpgWwLYWxegH64-123">
          <mxGeometry x="30" width="150" height="30" as="geometry">
            <mxRectangle width="150" height="30" as="alternateBounds" />
          </mxGeometry>
        </mxCell>
        <mxCell id="As_d3XrpgWwLYWxegH64-126" value="" style="shape=tableRow;horizontal=0;startSize=0;swimlaneHead=0;swimlaneBody=0;fillColor=none;collapsible=0;dropTarget=0;points=[[0,0.5],[1,0.5]];portConstraint=eastwest;top=0;left=0;right=0;bottom=0;" vertex="1" parent="As_d3XrpgWwLYWxegH64-116">
          <mxGeometry y="190" width="180" height="30" as="geometry" />
        </mxCell>
        <mxCell id="As_d3XrpgWwLYWxegH64-127" value="" style="shape=partialRectangle;connectable=0;fillColor=none;top=0;left=0;bottom=0;right=0;editable=1;overflow=hidden;whiteSpace=wrap;html=1;" vertex="1" parent="As_d3XrpgWwLYWxegH64-126">
          <mxGeometry width="30" height="30" as="geometry">
            <mxRectangle width="30" height="30" as="alternateBounds" />
          </mxGeometry>
        </mxCell>
        <mxCell id="As_d3XrpgWwLYWxegH64-128" value="Direccion" style="shape=partialRectangle;connectable=0;fillColor=none;top=0;left=0;bottom=0;right=0;align=left;spacingLeft=6;overflow=hidden;whiteSpace=wrap;html=1;" vertex="1" parent="As_d3XrpgWwLYWxegH64-126">
          <mxGeometry x="30" width="150" height="30" as="geometry">
            <mxRectangle width="150" height="30" as="alternateBounds" />
          </mxGeometry>
        </mxCell>
        <mxCell id="As_d3XrpgWwLYWxegH64-129" value="Compra" style="shape=table;startSize=30;container=1;collapsible=1;childLayout=tableLayout;fixedRows=1;rowLines=0;fontStyle=1;align=center;resizeLast=1;html=1;" vertex="1" parent="1">
          <mxGeometry x="335" y="1200" width="180" height="150" as="geometry" />
        </mxCell>
        <mxCell id="As_d3XrpgWwLYWxegH64-130" value="" style="shape=tableRow;horizontal=0;startSize=0;swimlaneHead=0;swimlaneBody=0;fillColor=none;collapsible=0;dropTarget=0;points=[[0,0.5],[1,0.5]];portConstraint=eastwest;top=0;left=0;right=0;bottom=1;" vertex="1" parent="As_d3XrpgWwLYWxegH64-129">
          <mxGeometry y="30" width="180" height="60" as="geometry" />
        </mxCell>
        <mxCell id="As_d3XrpgWwLYWxegH64-131" value="PK&lt;br&gt;&lt;br&gt;PK FK" style="shape=partialRectangle;connectable=0;fillColor=none;top=0;left=0;bottom=0;right=0;fontStyle=1;overflow=hidden;whiteSpace=wrap;html=1;" vertex="1" parent="As_d3XrpgWwLYWxegH64-130">
          <mxGeometry width="60" height="60" as="geometry">
            <mxRectangle width="60" height="60" as="alternateBounds" />
          </mxGeometry>
        </mxCell>
        <mxCell id="As_d3XrpgWwLYWxegH64-132" value="Cod.Compra&lt;br&gt;&lt;br&gt;Id. Inmueble" style="shape=partialRectangle;connectable=0;fillColor=none;top=0;left=0;bottom=0;right=0;align=left;spacingLeft=6;fontStyle=5;overflow=hidden;whiteSpace=wrap;html=1;" vertex="1" parent="As_d3XrpgWwLYWxegH64-130">
          <mxGeometry x="60" width="120" height="60" as="geometry">
            <mxRectangle width="120" height="60" as="alternateBounds" />
          </mxGeometry>
        </mxCell>
        <mxCell id="As_d3XrpgWwLYWxegH64-133" value="" style="shape=tableRow;horizontal=0;startSize=0;swimlaneHead=0;swimlaneBody=0;fillColor=none;collapsible=0;dropTarget=0;points=[[0,0.5],[1,0.5]];portConstraint=eastwest;top=0;left=0;right=0;bottom=0;" vertex="1" parent="As_d3XrpgWwLYWxegH64-129">
          <mxGeometry y="90" width="180" height="30" as="geometry" />
        </mxCell>
        <mxCell id="As_d3XrpgWwLYWxegH64-134" value="" style="shape=partialRectangle;connectable=0;fillColor=none;top=0;left=0;bottom=0;right=0;editable=1;overflow=hidden;whiteSpace=wrap;html=1;" vertex="1" parent="As_d3XrpgWwLYWxegH64-133">
          <mxGeometry width="60" height="30" as="geometry">
            <mxRectangle width="60" height="30" as="alternateBounds" />
          </mxGeometry>
        </mxCell>
        <mxCell id="As_d3XrpgWwLYWxegH64-135" value="Fecha&lt;br&gt;" style="shape=partialRectangle;connectable=0;fillColor=none;top=0;left=0;bottom=0;right=0;align=left;spacingLeft=6;overflow=hidden;whiteSpace=wrap;html=1;" vertex="1" parent="As_d3XrpgWwLYWxegH64-133">
          <mxGeometry x="60" width="120" height="30" as="geometry">
            <mxRectangle width="120" height="30" as="alternateBounds" />
          </mxGeometry>
        </mxCell>
        <mxCell id="As_d3XrpgWwLYWxegH64-136" value="" style="shape=tableRow;horizontal=0;startSize=0;swimlaneHead=0;swimlaneBody=0;fillColor=none;collapsible=0;dropTarget=0;points=[[0,0.5],[1,0.5]];portConstraint=eastwest;top=0;left=0;right=0;bottom=0;" vertex="1" parent="As_d3XrpgWwLYWxegH64-129">
          <mxGeometry y="120" width="180" height="30" as="geometry" />
        </mxCell>
        <mxCell id="As_d3XrpgWwLYWxegH64-137" value="" style="shape=partialRectangle;connectable=0;fillColor=none;top=0;left=0;bottom=0;right=0;editable=1;overflow=hidden;whiteSpace=wrap;html=1;" vertex="1" parent="As_d3XrpgWwLYWxegH64-136">
          <mxGeometry width="60" height="30" as="geometry">
            <mxRectangle width="60" height="30" as="alternateBounds" />
          </mxGeometry>
        </mxCell>
        <mxCell id="As_d3XrpgWwLYWxegH64-138" value="Valor" style="shape=partialRectangle;connectable=0;fillColor=none;top=0;left=0;bottom=0;right=0;align=left;spacingLeft=6;overflow=hidden;whiteSpace=wrap;html=1;" vertex="1" parent="As_d3XrpgWwLYWxegH64-136">
          <mxGeometry x="60" width="120" height="30" as="geometry">
            <mxRectangle width="120" height="30" as="alternateBounds" />
          </mxGeometry>
        </mxCell>
        <mxCell id="As_d3XrpgWwLYWxegH64-142" value="Alquiler" style="shape=table;startSize=30;container=1;collapsible=1;childLayout=tableLayout;fixedRows=1;rowLines=0;fontStyle=1;align=center;resizeLast=1;html=1;" vertex="1" parent="1">
          <mxGeometry x="583.44" y="885.28" width="180" height="214.72000000000025" as="geometry" />
        </mxCell>
        <mxCell id="As_d3XrpgWwLYWxegH64-231" value="" style="shape=tableRow;horizontal=0;startSize=0;swimlaneHead=0;swimlaneBody=0;fillColor=none;collapsible=0;dropTarget=0;points=[[0,0.5],[1,0.5]];portConstraint=eastwest;top=0;left=0;right=0;bottom=1;" vertex="1" parent="As_d3XrpgWwLYWxegH64-142">
          <mxGeometry y="30" width="180" height="30" as="geometry" />
        </mxCell>
        <mxCell id="As_d3XrpgWwLYWxegH64-232" value="PK" style="shape=partialRectangle;connectable=0;fillColor=none;top=0;left=0;bottom=0;right=0;fontStyle=1;overflow=hidden;whiteSpace=wrap;html=1;" vertex="1" parent="As_d3XrpgWwLYWxegH64-231">
          <mxGeometry width="46.86999999999989" height="30" as="geometry">
            <mxRectangle width="46.86999999999989" height="30" as="alternateBounds" />
          </mxGeometry>
        </mxCell>
        <mxCell id="As_d3XrpgWwLYWxegH64-233" value="ID, Alquil" style="shape=partialRectangle;connectable=0;fillColor=none;top=0;left=0;bottom=0;right=0;align=left;spacingLeft=6;fontStyle=5;overflow=hidden;whiteSpace=wrap;html=1;" vertex="1" parent="As_d3XrpgWwLYWxegH64-231">
          <mxGeometry x="46.86999999999989" width="133.1300000000001" height="30" as="geometry">
            <mxRectangle width="133.1300000000001" height="30" as="alternateBounds" />
          </mxGeometry>
        </mxCell>
        <mxCell id="As_d3XrpgWwLYWxegH64-235" value="" style="shape=tableRow;horizontal=0;startSize=0;swimlaneHead=0;swimlaneBody=0;fillColor=none;collapsible=0;dropTarget=0;points=[[0,0.5],[1,0.5]];portConstraint=eastwest;top=0;left=0;right=0;bottom=1;" vertex="1" parent="As_d3XrpgWwLYWxegH64-142">
          <mxGeometry y="60" width="180" height="30" as="geometry" />
        </mxCell>
        <mxCell id="As_d3XrpgWwLYWxegH64-236" value="PK FK" style="shape=partialRectangle;connectable=0;fillColor=none;top=0;left=0;bottom=0;right=0;fontStyle=1;overflow=hidden;whiteSpace=wrap;html=1;" vertex="1" parent="As_d3XrpgWwLYWxegH64-235">
          <mxGeometry width="46.86999999999989" height="30" as="geometry">
            <mxRectangle width="46.86999999999989" height="30" as="alternateBounds" />
          </mxGeometry>
        </mxCell>
        <mxCell id="As_d3XrpgWwLYWxegH64-237" value="Id. inmueble" style="shape=partialRectangle;connectable=0;fillColor=none;top=0;left=0;bottom=0;right=0;align=left;spacingLeft=6;fontStyle=5;overflow=hidden;whiteSpace=wrap;html=1;" vertex="1" parent="As_d3XrpgWwLYWxegH64-235">
          <mxGeometry x="46.86999999999989" width="133.1300000000001" height="30" as="geometry">
            <mxRectangle width="133.1300000000001" height="30" as="alternateBounds" />
          </mxGeometry>
        </mxCell>
        <mxCell id="As_d3XrpgWwLYWxegH64-239" value="" style="shape=tableRow;horizontal=0;startSize=0;swimlaneHead=0;swimlaneBody=0;fillColor=none;collapsible=0;dropTarget=0;points=[[0,0.5],[1,0.5]];portConstraint=eastwest;top=0;left=0;right=0;bottom=1;" vertex="1" parent="As_d3XrpgWwLYWxegH64-142">
          <mxGeometry y="90" width="180" height="30" as="geometry" />
        </mxCell>
        <mxCell id="As_d3XrpgWwLYWxegH64-240" value="FK" style="shape=partialRectangle;connectable=0;fillColor=none;top=0;left=0;bottom=0;right=0;fontStyle=1;overflow=hidden;whiteSpace=wrap;html=1;" vertex="1" parent="As_d3XrpgWwLYWxegH64-239">
          <mxGeometry width="46.86999999999989" height="30" as="geometry">
            <mxRectangle width="46.86999999999989" height="30" as="alternateBounds" />
          </mxGeometry>
        </mxCell>
        <mxCell id="As_d3XrpgWwLYWxegH64-241" value="DNI trabaj" style="shape=partialRectangle;connectable=0;fillColor=none;top=0;left=0;bottom=0;right=0;align=left;spacingLeft=6;fontStyle=5;overflow=hidden;whiteSpace=wrap;html=1;" vertex="1" parent="As_d3XrpgWwLYWxegH64-239">
          <mxGeometry x="46.86999999999989" width="133.1300000000001" height="30" as="geometry">
            <mxRectangle width="133.1300000000001" height="30" as="alternateBounds" />
          </mxGeometry>
        </mxCell>
        <mxCell id="As_d3XrpgWwLYWxegH64-143" value="" style="shape=tableRow;horizontal=0;startSize=0;swimlaneHead=0;swimlaneBody=0;fillColor=none;collapsible=0;dropTarget=0;points=[[0,0.5],[1,0.5]];portConstraint=eastwest;top=0;left=0;right=0;bottom=1;" vertex="1" parent="As_d3XrpgWwLYWxegH64-142">
          <mxGeometry y="120" width="180" height="35" as="geometry" />
        </mxCell>
        <mxCell id="As_d3XrpgWwLYWxegH64-144" value="" style="shape=partialRectangle;connectable=0;fillColor=none;top=0;left=0;bottom=0;right=0;fontStyle=1;overflow=hidden;whiteSpace=wrap;html=1;" vertex="1" parent="As_d3XrpgWwLYWxegH64-143">
          <mxGeometry width="46.86999999999989" height="35" as="geometry">
            <mxRectangle width="46.86999999999989" height="35" as="alternateBounds" />
          </mxGeometry>
        </mxCell>
        <mxCell id="As_d3XrpgWwLYWxegH64-145" value="" style="shape=partialRectangle;connectable=0;fillColor=none;top=0;left=0;bottom=0;right=0;align=left;spacingLeft=6;fontStyle=5;overflow=hidden;whiteSpace=wrap;html=1;" vertex="1" parent="As_d3XrpgWwLYWxegH64-143">
          <mxGeometry x="46.86999999999989" width="133.1300000000001" height="35" as="geometry">
            <mxRectangle width="133.1300000000001" height="35" as="alternateBounds" />
          </mxGeometry>
        </mxCell>
        <mxCell id="As_d3XrpgWwLYWxegH64-146" value="" style="shape=tableRow;horizontal=0;startSize=0;swimlaneHead=0;swimlaneBody=0;fillColor=none;collapsible=0;dropTarget=0;points=[[0,0.5],[1,0.5]];portConstraint=eastwest;top=0;left=0;right=0;bottom=0;" vertex="1" parent="As_d3XrpgWwLYWxegH64-142">
          <mxGeometry y="155" width="180" height="30" as="geometry" />
        </mxCell>
        <mxCell id="As_d3XrpgWwLYWxegH64-147" value="" style="shape=partialRectangle;connectable=0;fillColor=none;top=0;left=0;bottom=0;right=0;editable=1;overflow=hidden;whiteSpace=wrap;html=1;" vertex="1" parent="As_d3XrpgWwLYWxegH64-146">
          <mxGeometry width="46.86999999999989" height="30" as="geometry">
            <mxRectangle width="46.86999999999989" height="30" as="alternateBounds" />
          </mxGeometry>
        </mxCell>
        <mxCell id="As_d3XrpgWwLYWxegH64-148" value="Fecha" style="shape=partialRectangle;connectable=0;fillColor=none;top=0;left=0;bottom=0;right=0;align=left;spacingLeft=6;overflow=hidden;whiteSpace=wrap;html=1;" vertex="1" parent="As_d3XrpgWwLYWxegH64-146">
          <mxGeometry x="46.86999999999989" width="133.1300000000001" height="30" as="geometry">
            <mxRectangle width="133.1300000000001" height="30" as="alternateBounds" />
          </mxGeometry>
        </mxCell>
        <mxCell id="As_d3XrpgWwLYWxegH64-149" value="" style="shape=tableRow;horizontal=0;startSize=0;swimlaneHead=0;swimlaneBody=0;fillColor=none;collapsible=0;dropTarget=0;points=[[0,0.5],[1,0.5]];portConstraint=eastwest;top=0;left=0;right=0;bottom=0;" vertex="1" parent="As_d3XrpgWwLYWxegH64-142">
          <mxGeometry y="185" width="180" height="30" as="geometry" />
        </mxCell>
        <mxCell id="As_d3XrpgWwLYWxegH64-150" value="" style="shape=partialRectangle;connectable=0;fillColor=none;top=0;left=0;bottom=0;right=0;editable=1;overflow=hidden;whiteSpace=wrap;html=1;" vertex="1" parent="As_d3XrpgWwLYWxegH64-149">
          <mxGeometry width="46.86999999999989" height="30" as="geometry">
            <mxRectangle width="46.86999999999989" height="30" as="alternateBounds" />
          </mxGeometry>
        </mxCell>
        <mxCell id="As_d3XrpgWwLYWxegH64-151" value="Valor" style="shape=partialRectangle;connectable=0;fillColor=none;top=0;left=0;bottom=0;right=0;align=left;spacingLeft=6;overflow=hidden;whiteSpace=wrap;html=1;" vertex="1" parent="As_d3XrpgWwLYWxegH64-149">
          <mxGeometry x="46.86999999999989" width="133.1300000000001" height="30" as="geometry">
            <mxRectangle width="133.1300000000001" height="30" as="alternateBounds" />
          </mxGeometry>
        </mxCell>
        <mxCell id="As_d3XrpgWwLYWxegH64-157" value="Pisos" style="shape=table;startSize=30;container=1;collapsible=1;childLayout=tableLayout;fixedRows=1;rowLines=0;fontStyle=1;align=center;resizeLast=1;html=1;" vertex="1" parent="1">
          <mxGeometry x="574.7" y="1460" width="176.8699999999999" height="80" as="geometry" />
        </mxCell>
        <mxCell id="As_d3XrpgWwLYWxegH64-158" value="" style="shape=tableRow;horizontal=0;startSize=0;swimlaneHead=0;swimlaneBody=0;fillColor=none;collapsible=0;dropTarget=0;points=[[0,0.5],[1,0.5]];portConstraint=eastwest;top=0;left=0;right=0;bottom=1;" vertex="1" parent="As_d3XrpgWwLYWxegH64-157">
          <mxGeometry y="30" width="176.8699999999999" height="50" as="geometry" />
        </mxCell>
        <mxCell id="As_d3XrpgWwLYWxegH64-159" value="PK&lt;br&gt;PK FK" style="shape=partialRectangle;connectable=0;fillColor=none;top=0;left=0;bottom=0;right=0;fontStyle=1;overflow=hidden;whiteSpace=wrap;html=1;" vertex="1" parent="As_d3XrpgWwLYWxegH64-158">
          <mxGeometry width="46.86999999999989" height="50" as="geometry">
            <mxRectangle width="46.86999999999989" height="50" as="alternateBounds" />
          </mxGeometry>
        </mxCell>
        <mxCell id="As_d3XrpgWwLYWxegH64-160" value="Cod. piso&lt;br&gt;Id. inmueble" style="shape=partialRectangle;connectable=0;fillColor=none;top=0;left=0;bottom=0;right=0;align=left;spacingLeft=6;fontStyle=5;overflow=hidden;whiteSpace=wrap;html=1;" vertex="1" parent="As_d3XrpgWwLYWxegH64-158">
          <mxGeometry x="46.86999999999989" width="130" height="50" as="geometry">
            <mxRectangle width="130" height="50" as="alternateBounds" />
          </mxGeometry>
        </mxCell>
        <mxCell id="As_d3XrpgWwLYWxegH64-170" value="" style="shape=stencil(lVnZctswDPwav2JIgudzm/5HZuo2nqZJJ0mvvy9YDyQRtNbxm6MsKZBYLA4d+MPrw/2P4yG417eX52/H36fPbw8H/ngI4fT0cHw5vcmvA98d+MOX55fj15fnn0+fz3//uO/I/uv786++w5/zutYotr4quL/nJ45y/P/g0xn/eHra4pmYB7ynBvC1kssDnsk5gI9Ug8GXAPCO6mh/pJT38SXrvxWfKAF7SqBSBnymCM6bG3Ec8IW4ALxslwZ8xXimNNrT4Hmz3M+I98uTiwtSpWAcHKBFKVF144JIjsECpjAe2csWaIFYbBYUSIpY1afLgkYFeC1mJaUu6LQG1xqFlXVcENXxlxd48qMfhBgOXCsLD0Zii6eRSSxEHpnHgVoCCyQS/bggk0cLHMWRGizk8/sLhMvmDVFMAp6WYKxmQSYGnhZ1MIeOjTJ6g6c4viFJhIMz+OWIy4IEFbJzc+SShFQEJgn723itErQNUEPii8d4EFVAIeonT+cEVcP7SfUKJXQGR2mMBxHCCK5V4nE8QpEAaQhv0ogIcwUnqJRHJxTJC4DbonpGtjMFlEcm+yvMaxLsZv+mCnJZt6091VNGKmzTQmUYmlGlYcEnTew7eB7vvxboL7YEqg3Lne62pDUH/Tul5RYgQYPlQ5MkBe5/2W3BJ4rA/mDLqJZhxgmqUgu+QVUJtmwRfIH3wxMe36dLFo/qOmHjtH8DfPCWz945GDBOS4LtC4DDJDfNBoHM4SbCNViEOK1ptg6A+xvJ7Q6G5/XB4iO4UHfBwRHub7KS4FHAixxP+AAdbAPmGr5NeGRPoFBuOW+wafvKfUpATvefUW0zCQrmQ9C24Z18C+Rv4rO3VfiVePHEY8K+HpDtpoifKoIriuIuOBgpltN88k5FdLbEv6K4t+O9Oa9kACgowRA0qYTt4c3+UWuidwqiUBAKaDX7Oy3Gdwhk9u8ZHgaAyTC9gsAZ0lRASRmyU0EEYw9ra72Db3OFBfgfNZ9vKzhw3mQDvhTYjk1dQK9AAX+yyuu2wgX2Z42OTQVdQPwWO5joFTrgQ7X29FEIsGcaPEmLEZHAOb3uTRODHOyD7RnyMnnYa5Oy6atwESqdWxxNklYPtavSG5rhijSTsK9q5M0CSWwojXkbBvFKj842cUvLHdCCpLK2aeqRUAgzTCrjpslnb85gmivOUFqYlWmb0Qfi9jro2AxXKiArV02+y4IM03Gc6iEREA8OfWGitDThezMrkxD6qALQO1ZLb6Ejokby2iJtBnWoJkpsuxoJKXStKVt696AFjpP4Mm1Bnzyg+adXi9d5KWJ3jhpe6/wWlVEiWlYzqIH9u4iO+ASzQkm274iw6irT/BkPYyVJhpHYDGlasx00BCjCzdu043WueRlfVHEV72Cf3qplkIPnFbxJy0ujtocvkz0oqzVbljooXb3rmfZH99ksn502anv4OuGBqqxF+oqHOdNNdbKDg/C1LVnxKO33A9gPVEi01jZsg0cEuvUD2FW8/Fi/tn05PT6eP9Zt/2+/zsmj85c9vvsH);lineShape=1;" vertex="1" parent="1">
          <mxGeometry x="-24.56569630549029" y="871.429636807788" width="43.13609865382705" height="158.76245162993928" as="geometry" />
        </mxCell>
        <mxCell id="As_d3XrpgWwLYWxegH64-171" value="" style="shape=stencil(lVrZct02DP2a+8rhBi7PafofmYlTe+rGGcfd/r5gPdAVD6Wj8Zuti0ORIHCw6ZY+/Xz88uPhFv3Pt9eX3x/+fvr69nhLv9xifPr++PD69KZ/3dLnW/r07eX14bfXlz+/f33//8eXITn++uPlr7HCP++43l3qAxX9v9uTHv5/8us74Pnp+x7QXGgzoLnaCaC4lmZAdTkSgLiWZ0BxSQgguxJngDjP3pBcDDMguZwIIDiBQ+sTcujWXZ0B+qQQtbbqWpkBlQNUS/AGcYWcoaUFkFz1BBDw4saTcg6oemg4g3chE0A1JRqgNlP0MUBcns+gS0S2Jb3XOgOKC8Q0qt6rzABxoZ4Dih56tqWaXSL3UKrrs7XqJtlNF93xfA81uk60VLKLFQHMvEtcAMF1YhrFO98QwFxU1Jhnn66esoZk1wICAntDcMVPAL2ZTIwvL0RWmivElnI2/9oAlWopBxcKAgK5h6TrzVrSu8/ENJLy3GytRVxlb4imkx2A+UPyZv0bIFNrjataM3WguJH7BlCmImqNuoGGgEwuLibnMwLoltSY4dCRBsXQF9OItsljgN50QUBmADUEj4BELi6oA3UEBPYGVaIgwBOPC9GC7AYIFmKOAd7izQ7AIlBfdhSokpqLy4aYcRfXQUXe2P+YYzCoi5I/kVdDnc1ImrHasbMZ/2zyla4fXYX1ixNmphY2Nnmh8TlYINvkE816PCYMEmke5i0qbfKeximP1KIc3sn+PRporpYOnMnP9pnFdaJ/j7yiIYLpf8uGNnllJiof4byandDzQrKTdYf0vHXWf2oWpk/sAfSpAYvF5GAMtclrikrlgUWThg4WCZwH+Ugri+hk9i+Nbixl1jJhXl8ZphL+SUjqyjAsYc7ov/qEEeimvU0+msed8FuZ+U1vnEWlijlXaKaxE76FmkWjVKF83mb/GkGKrK8BA3I6DVIszQxqcQDgDKSADkdWEiMuE5YEipfLKt8iyAd2ZGWE+c4aDUlDIRHkPbkClRdIxJ1w+Q6pkBOmn4ycJTTEqzzo88IklGHB5y2In8qDD9DaSeXRx2huqfJ11n+gISOIMbLJe5fYfgRjhjdSOpOPuH5g9ikYg72R6pk89Fo8tzdBTvHcIQVzMm8OcZYXB9x/4PIR98+q9SEvIJ8/uD4NeVs74i7P6uKhnwbyjcsv+u/MnsWqu50883exiLuTZymEWL9mt3++n8X+K1/f4/osZT2SZyno2A/qJ3L/XeyBpkyCpafnRZhgTuNpSqnyFe35Qr4v/MDuq2D8ujhvMXfd6fPCv9AeWJdnyOP+WYryYXnBmifSlCkI1sDJAtqpP0INYEXHqT1ATXXFtxAveMlzz9ju+QDNl7JLmG9ULg/xsdmFn+Un2Gjn/JnW/C1xeb8kiDSgRmxRa47JijD9uc0n1iUiz1mhJTeSOnZnHjnlznpnfZfZhtQrWEeuWQqzqxsq68qjzV0EgcUnR0eP7Ec5FOowoU6TkUN1h4wU0+LzzXr6J/JhqTt5Xwea5VrXsr5CRE4cdTMLSsjpiXeN17q88iQUfT41G5Kc9RXmGJA97dt5a7vv+yLkvB7nUjlRe/DYhxt9HbofyIkv+0Zwv6MvRfteFfTTOOliX0ouktylDxd4UokTLOHj04gzNckX/gJVvBQ65cuWYuz6piwpEMy5pdEiryDhSqdtiIr7LzxmNNR/8bQP13EarfK0qPXYeCnBRZbVRMxyFUDL1GQOsgPQmJSXvkLgE5OCcXVMG1iYbMtsLHAtdWyHXkxMht8sIxY2rotpGabxMdFohixbYuXY6M7ATasz8XFdWmZjbEvJ41BgzPeYM0esKEvmXdelZCpiRfgxoFmXeAdg/JKXxnQp1OGU/4GBS6U3rQSNQ81GR47KuNALVgCLIYNCwR86HV/L0t2t3njqmPX88lXARZq2tco2QKD9eDUE/JyDd8/0miDTrJFG5qF1+MIk0f5rXWZGCmCxsC7pe820QzHWgzcIzY70Zyi5Kh8r1IY1S220Kda8RYMN0Omgo0Ur0reqK9B7aBlT8pasKDkGlAUglMja4nGt0k5CX6ZrrdM39Ig00wN/Q8KAok/Y9x99aXb1TE2jL1rSJ6x92ytqSZ94ctO94QxJn9Cv9zpOVPQJM40BKAuAbalji1if0LGlXwa7vXO9Hr2COcThIRr7ZvFITexjovt6ewB/A0SUAeBngKveKe4Ugc2RSwS0p643lT967A9+0HoN0D/u389+e3p+fv/8dv87fm+rj96/1U2f/wM=);lineShape=1;" vertex="1" parent="1">
          <mxGeometry x="-8.350782882595013" y="885.2774541066137" width="160.91681076436953" height="197.28477715117424" as="geometry" />
        </mxCell>
        <mxCell id="As_d3XrpgWwLYWxegH64-175" value="locales" style="shape=table;startSize=30;container=1;collapsible=1;childLayout=tableLayout;fixedRows=1;rowLines=0;fontStyle=1;align=center;resizeLast=1;html=1;" vertex="1" parent="1">
          <mxGeometry x="810" y="1270" width="180" height="120" as="geometry" />
        </mxCell>
        <mxCell id="As_d3XrpgWwLYWxegH64-176" value="" style="shape=tableRow;horizontal=0;startSize=0;swimlaneHead=0;swimlaneBody=0;fillColor=none;collapsible=0;dropTarget=0;points=[[0,0.5],[1,0.5]];portConstraint=eastwest;top=0;left=0;right=0;bottom=1;" vertex="1" parent="As_d3XrpgWwLYWxegH64-175">
          <mxGeometry y="30" width="180" height="30" as="geometry" />
        </mxCell>
        <mxCell id="As_d3XrpgWwLYWxegH64-177" value="PK FK" style="shape=partialRectangle;connectable=0;fillColor=none;top=0;left=0;bottom=0;right=0;fontStyle=1;overflow=hidden;whiteSpace=wrap;html=1;" vertex="1" parent="As_d3XrpgWwLYWxegH64-176">
          <mxGeometry width="50.279999999999745" height="30" as="geometry">
            <mxRectangle width="50.279999999999745" height="30" as="alternateBounds" />
          </mxGeometry>
        </mxCell>
        <mxCell id="As_d3XrpgWwLYWxegH64-178" value="Id.Inmueble" style="shape=partialRectangle;connectable=0;fillColor=none;top=0;left=0;bottom=0;right=0;align=left;spacingLeft=6;fontStyle=5;overflow=hidden;whiteSpace=wrap;html=1;" vertex="1" parent="As_d3XrpgWwLYWxegH64-176">
          <mxGeometry x="50.279999999999745" width="129.72000000000025" height="30" as="geometry">
            <mxRectangle width="129.72000000000025" height="30" as="alternateBounds" />
          </mxGeometry>
        </mxCell>
        <mxCell id="As_d3XrpgWwLYWxegH64-179" value="" style="shape=tableRow;horizontal=0;startSize=0;swimlaneHead=0;swimlaneBody=0;fillColor=none;collapsible=0;dropTarget=0;points=[[0,0.5],[1,0.5]];portConstraint=eastwest;top=0;left=0;right=0;bottom=0;" vertex="1" parent="As_d3XrpgWwLYWxegH64-175">
          <mxGeometry y="60" width="180" height="30" as="geometry" />
        </mxCell>
        <mxCell id="As_d3XrpgWwLYWxegH64-180" value="" style="shape=partialRectangle;connectable=0;fillColor=none;top=0;left=0;bottom=0;right=0;editable=1;overflow=hidden;whiteSpace=wrap;html=1;" vertex="1" parent="As_d3XrpgWwLYWxegH64-179">
          <mxGeometry width="50.279999999999745" height="30" as="geometry">
            <mxRectangle width="50.279999999999745" height="30" as="alternateBounds" />
          </mxGeometry>
        </mxCell>
        <mxCell id="As_d3XrpgWwLYWxegH64-181" value="WC" style="shape=partialRectangle;connectable=0;fillColor=none;top=0;left=0;bottom=0;right=0;align=left;spacingLeft=6;overflow=hidden;whiteSpace=wrap;html=1;" vertex="1" parent="As_d3XrpgWwLYWxegH64-179">
          <mxGeometry x="50.279999999999745" width="129.72000000000025" height="30" as="geometry">
            <mxRectangle width="129.72000000000025" height="30" as="alternateBounds" />
          </mxGeometry>
        </mxCell>
        <mxCell id="As_d3XrpgWwLYWxegH64-182" value="" style="shape=tableRow;horizontal=0;startSize=0;swimlaneHead=0;swimlaneBody=0;fillColor=none;collapsible=0;dropTarget=0;points=[[0,0.5],[1,0.5]];portConstraint=eastwest;top=0;left=0;right=0;bottom=0;" vertex="1" parent="As_d3XrpgWwLYWxegH64-175">
          <mxGeometry y="90" width="180" height="30" as="geometry" />
        </mxCell>
        <mxCell id="As_d3XrpgWwLYWxegH64-183" value="" style="shape=partialRectangle;connectable=0;fillColor=none;top=0;left=0;bottom=0;right=0;editable=1;overflow=hidden;whiteSpace=wrap;html=1;" vertex="1" parent="As_d3XrpgWwLYWxegH64-182">
          <mxGeometry width="50.279999999999745" height="30" as="geometry">
            <mxRectangle width="50.279999999999745" height="30" as="alternateBounds" />
          </mxGeometry>
        </mxCell>
        <mxCell id="As_d3XrpgWwLYWxegH64-184" value="Uso" style="shape=partialRectangle;connectable=0;fillColor=none;top=0;left=0;bottom=0;right=0;align=left;spacingLeft=6;overflow=hidden;whiteSpace=wrap;html=1;" vertex="1" parent="As_d3XrpgWwLYWxegH64-182">
          <mxGeometry x="50.279999999999745" width="129.72000000000025" height="30" as="geometry">
            <mxRectangle width="129.72000000000025" height="30" as="alternateBounds" />
          </mxGeometry>
        </mxCell>
        <mxCell id="As_d3XrpgWwLYWxegH64-191" value="Garaje" style="shape=table;startSize=30;container=1;collapsible=1;childLayout=tableLayout;fixedRows=1;rowLines=0;fontStyle=1;align=center;resizeLast=1;html=1;" vertex="1" parent="1">
          <mxGeometry x="1040" y="1276.67" width="180" height="150" as="geometry" />
        </mxCell>
        <mxCell id="As_d3XrpgWwLYWxegH64-192" value="" style="shape=tableRow;horizontal=0;startSize=0;swimlaneHead=0;swimlaneBody=0;fillColor=none;collapsible=0;dropTarget=0;points=[[0,0.5],[1,0.5]];portConstraint=eastwest;top=0;left=0;right=0;bottom=1;" vertex="1" parent="As_d3XrpgWwLYWxegH64-191">
          <mxGeometry y="30" width="180" height="60" as="geometry" />
        </mxCell>
        <mxCell id="As_d3XrpgWwLYWxegH64-193" value="PK FK" style="shape=partialRectangle;connectable=0;fillColor=none;top=0;left=0;bottom=0;right=0;fontStyle=1;overflow=hidden;whiteSpace=wrap;html=1;" vertex="1" parent="As_d3XrpgWwLYWxegH64-192">
          <mxGeometry width="63" height="60" as="geometry">
            <mxRectangle width="63" height="60" as="alternateBounds" />
          </mxGeometry>
        </mxCell>
        <mxCell id="As_d3XrpgWwLYWxegH64-194" value="Id. Inmueble" style="shape=partialRectangle;connectable=0;fillColor=none;top=0;left=0;bottom=0;right=0;align=left;spacingLeft=6;fontStyle=5;overflow=hidden;whiteSpace=wrap;html=1;" vertex="1" parent="As_d3XrpgWwLYWxegH64-192">
          <mxGeometry x="63" width="117" height="60" as="geometry">
            <mxRectangle width="117" height="60" as="alternateBounds" />
          </mxGeometry>
        </mxCell>
        <mxCell id="As_d3XrpgWwLYWxegH64-195" value="" style="shape=tableRow;horizontal=0;startSize=0;swimlaneHead=0;swimlaneBody=0;fillColor=none;collapsible=0;dropTarget=0;points=[[0,0.5],[1,0.5]];portConstraint=eastwest;top=0;left=0;right=0;bottom=0;" vertex="1" parent="As_d3XrpgWwLYWxegH64-191">
          <mxGeometry y="90" width="180" height="30" as="geometry" />
        </mxCell>
        <mxCell id="As_d3XrpgWwLYWxegH64-196" value="PK UK" style="shape=partialRectangle;connectable=0;fillColor=none;top=0;left=0;bottom=0;right=0;editable=1;overflow=hidden;whiteSpace=wrap;html=1;" vertex="1" parent="As_d3XrpgWwLYWxegH64-195">
          <mxGeometry width="63" height="30" as="geometry">
            <mxRectangle width="63" height="30" as="alternateBounds" />
          </mxGeometry>
        </mxCell>
        <mxCell id="As_d3XrpgWwLYWxegH64-197" value="Numero" style="shape=partialRectangle;connectable=0;fillColor=none;top=0;left=0;bottom=0;right=0;align=left;spacingLeft=6;overflow=hidden;whiteSpace=wrap;html=1;" vertex="1" parent="As_d3XrpgWwLYWxegH64-195">
          <mxGeometry x="63" width="117" height="30" as="geometry">
            <mxRectangle width="117" height="30" as="alternateBounds" />
          </mxGeometry>
        </mxCell>
        <mxCell id="As_d3XrpgWwLYWxegH64-198" value="" style="shape=tableRow;horizontal=0;startSize=0;swimlaneHead=0;swimlaneBody=0;fillColor=none;collapsible=0;dropTarget=0;points=[[0,0.5],[1,0.5]];portConstraint=eastwest;top=0;left=0;right=0;bottom=0;" vertex="1" parent="As_d3XrpgWwLYWxegH64-191">
          <mxGeometry y="120" width="180" height="30" as="geometry" />
        </mxCell>
        <mxCell id="As_d3XrpgWwLYWxegH64-199" value="" style="shape=partialRectangle;connectable=0;fillColor=none;top=0;left=0;bottom=0;right=0;editable=1;overflow=hidden;whiteSpace=wrap;html=1;" vertex="1" parent="As_d3XrpgWwLYWxegH64-198">
          <mxGeometry width="63" height="30" as="geometry">
            <mxRectangle width="63" height="30" as="alternateBounds" />
          </mxGeometry>
        </mxCell>
        <mxCell id="As_d3XrpgWwLYWxegH64-200" value="Planta" style="shape=partialRectangle;connectable=0;fillColor=none;top=0;left=0;bottom=0;right=0;align=left;spacingLeft=6;overflow=hidden;whiteSpace=wrap;html=1;" vertex="1" parent="As_d3XrpgWwLYWxegH64-198">
          <mxGeometry x="63" width="117" height="30" as="geometry">
            <mxRectangle width="117" height="30" as="alternateBounds" />
          </mxGeometry>
        </mxCell>
        <mxCell id="As_d3XrpgWwLYWxegH64-210" value="" style="line;strokeWidth=1;rotatable=0;dashed=0;labelPosition=right;align=left;verticalAlign=middle;spacingTop=0;spacingLeft=6;points=[];portConstraint=eastwest;" vertex="1" parent="1">
          <mxGeometry x="335" y="1250" width="180" height="10" as="geometry" />
        </mxCell>
        <mxCell id="As_d3XrpgWwLYWxegH64-211" value="Realiza" style="shape=table;startSize=30;container=1;collapsible=1;childLayout=tableLayout;fixedRows=1;rowLines=0;fontStyle=1;align=center;resizeLast=1;html=1;" vertex="1" parent="1">
          <mxGeometry x="-38.75999999999999" y="1169" width="180" height="120" as="geometry" />
        </mxCell>
        <mxCell id="As_d3XrpgWwLYWxegH64-212" value="" style="shape=tableRow;horizontal=0;startSize=0;swimlaneHead=0;swimlaneBody=0;fillColor=none;collapsible=0;dropTarget=0;points=[[0,0.5],[1,0.5]];portConstraint=eastwest;top=0;left=0;right=0;bottom=1;" vertex="1" parent="As_d3XrpgWwLYWxegH64-211">
          <mxGeometry y="30" width="180" height="30" as="geometry" />
        </mxCell>
        <mxCell id="As_d3XrpgWwLYWxegH64-213" value="PK FK" style="shape=partialRectangle;connectable=0;fillColor=none;top=0;left=0;bottom=0;right=0;fontStyle=1;overflow=hidden;whiteSpace=wrap;html=1;" vertex="1" parent="As_d3XrpgWwLYWxegH64-212">
          <mxGeometry width="48.76000000000022" height="30" as="geometry">
            <mxRectangle width="48.76000000000022" height="30" as="alternateBounds" />
          </mxGeometry>
        </mxCell>
        <mxCell id="As_d3XrpgWwLYWxegH64-214" value="DNI" style="shape=partialRectangle;connectable=0;fillColor=none;top=0;left=0;bottom=0;right=0;align=left;spacingLeft=6;fontStyle=5;overflow=hidden;whiteSpace=wrap;html=1;" vertex="1" parent="As_d3XrpgWwLYWxegH64-212">
          <mxGeometry x="48.76000000000022" width="131.23999999999978" height="30" as="geometry">
            <mxRectangle width="131.23999999999978" height="30" as="alternateBounds" />
          </mxGeometry>
        </mxCell>
        <mxCell id="As_d3XrpgWwLYWxegH64-215" value="" style="shape=tableRow;horizontal=0;startSize=0;swimlaneHead=0;swimlaneBody=0;fillColor=none;collapsible=0;dropTarget=0;points=[[0,0.5],[1,0.5]];portConstraint=eastwest;top=0;left=0;right=0;bottom=0;" vertex="1" parent="As_d3XrpgWwLYWxegH64-211">
          <mxGeometry y="60" width="180" height="30" as="geometry" />
        </mxCell>
        <mxCell id="As_d3XrpgWwLYWxegH64-216" value="PK FK" style="shape=partialRectangle;connectable=0;fillColor=none;top=0;left=0;bottom=0;right=0;editable=1;overflow=hidden;whiteSpace=wrap;html=1;" vertex="1" parent="As_d3XrpgWwLYWxegH64-215">
          <mxGeometry width="48.76000000000022" height="30" as="geometry">
            <mxRectangle width="48.76000000000022" height="30" as="alternateBounds" />
          </mxGeometry>
        </mxCell>
        <mxCell id="As_d3XrpgWwLYWxegH64-217" value="Cod Compra" style="shape=partialRectangle;connectable=0;fillColor=none;top=0;left=0;bottom=0;right=0;align=left;spacingLeft=6;overflow=hidden;whiteSpace=wrap;html=1;" vertex="1" parent="As_d3XrpgWwLYWxegH64-215">
          <mxGeometry x="48.76000000000022" width="131.23999999999978" height="30" as="geometry">
            <mxRectangle width="131.23999999999978" height="30" as="alternateBounds" />
          </mxGeometry>
        </mxCell>
        <mxCell id="As_d3XrpgWwLYWxegH64-218" value="" style="shape=tableRow;horizontal=0;startSize=0;swimlaneHead=0;swimlaneBody=0;fillColor=none;collapsible=0;dropTarget=0;points=[[0,0.5],[1,0.5]];portConstraint=eastwest;top=0;left=0;right=0;bottom=0;" vertex="1" parent="As_d3XrpgWwLYWxegH64-211">
          <mxGeometry y="90" width="180" height="30" as="geometry" />
        </mxCell>
        <mxCell id="As_d3XrpgWwLYWxegH64-219" value="PK FK" style="shape=partialRectangle;connectable=0;fillColor=none;top=0;left=0;bottom=0;right=0;editable=1;overflow=hidden;whiteSpace=wrap;html=1;" vertex="1" parent="As_d3XrpgWwLYWxegH64-218">
          <mxGeometry width="48.76000000000022" height="30" as="geometry">
            <mxRectangle width="48.76000000000022" height="30" as="alternateBounds" />
          </mxGeometry>
        </mxCell>
        <mxCell id="As_d3XrpgWwLYWxegH64-220" value="Id Inmueble" style="shape=partialRectangle;connectable=0;fillColor=none;top=0;left=0;bottom=0;right=0;align=left;spacingLeft=6;overflow=hidden;whiteSpace=wrap;html=1;" vertex="1" parent="As_d3XrpgWwLYWxegH64-218">
          <mxGeometry x="48.76000000000022" width="131.23999999999978" height="30" as="geometry">
            <mxRectangle width="131.23999999999978" height="30" as="alternateBounds" />
          </mxGeometry>
        </mxCell>
        <mxCell id="As_d3XrpgWwLYWxegH64-224" value="" style="shape=stencil(rVjZbhsxDPwavxKibj2n6X8EiNMYTePAca+/L7eu7NWsdwIDfUvWHImkhucm3L0/P7xtN969Hw/7r9ufu8fj8yZ82ni/e33eHnZH+2sT7jfh7ml/2H457L+/Pp7+f3uYJKe/vu1/TCf8OuFaE+8mlHe/z19a/Pvl8wnwsnudA4rkhAD1BJBEdQRU8YEAvNQwAorEtA6oTVIdAVkiUakmCX4EJHGFAJz4OAKChLYOKFECeElF8zogF2mjDbVSo7PiDZNVxK0pSh5fuqrkug6Ipf/cAcXegdgQVdx4Q/H0hhCljDaYGxKxwVdpeQR46lYfOpk7IGVpxK1qXGojQKURLmmSMtLb/PbPDdcBvnPzDPCUSw0vCKV74Tr3MBpCoCYnqSDvJDBeSBr1sRs9MThIHFlhJ3hyvvmnjPIqkcgrkkirVPZimI8008Bx6H81/Yk/nUSQ9zQbWW4Z+aB2I0lGThTSo3hCBxOHoJRKxR2EpGQuPp6eenlYEx+jK3bnrrlmjF5jMmGaeb6BuFJlKhBNIql82qPi/E5SWHLDdHt+iBXx6kHcEdJEcRnFyenG2IbixFQL8YXuVBxaAkcD3N48gjirdIsi4SRzZdDUSihmpuLpjQSf1fXR71bzqKkQq0odaSRoN4nnW5QJmFi5qdbh4DMxRwbxeHomWTUsGclIEDD4OMVCbyNmBKbKLBjJwiNgr/Zh8CmK09COC93p6RlPZ921RRPmGdZ8mDjmmUTDY3F6YR3jUnfWay08o71Y/Q9x38eYSzmotO2IY+KIdITQ/ioXcRZNivk90aSnnVGzqs26XHGj360n4KfD9EMppuhIdbTKW2FdNEysIVNkjTVkrM57tNYaPtaw+u7qWUOZeaIcmXCxaC0fQN8Re1u00qAHkM89AV0fDTGbBV6+Kw4kNjBkoo89J2RXm0hYk6gBW1wbeRwD5N7xnwGZ8n/KYjDnKZ8kY3/S2WCY2A0Ni61N4IzVIaFbbbil6WrBaxuflSXbiu1xMWIQlVLCdqQqrS1mIqxiqmV44ta84FIt/Yi1RQl0d83YRWpAdeil5jvf15Y98NIt9gltbZ3UYMBKXcnrA3rAAt8yHQ3svDR6qRVKvmljBlu6Smfi1voIOdvSsYbJfq4LQGAqNdys2Bc25k6AioDEyoJbDJeGyISu0xVtAWCrlWtG0JdruCyZvpBMdjlvvl9l28+GW7cJQLLA5EWYAhzvR6eHCrcioERfXnMNcONa+WOA/XHZYj/tXl5OS/D577j1tk+njXm4/wM=);lineShape=1;" vertex="1" parent="1">
          <mxGeometry x="-154.5784505833385" y="1075.6250417459646" width="110.14441170964074" height="142.93788942270112" as="geometry" />
        </mxCell>
        <mxCell id="As_d3XrpgWwLYWxegH64-225" value="" style="shape=stencil(rVjbbtswDP2avBK6UKT03HX/UaDpGqxrirS7/f3oBUotKj7bgL05Do/NyyF55F2+eX28e9nvUnh9Ox0/778f7t8ed/nDLqXD8+P+dHizq12+3eWbh+Np/+l0/Pp8f/79crdYLldfjt+WJ/w44zJpXkAp/DzfYJL0+8bHs/nT4XllHgs1cfaq2/Y5UI3OvtRte86UymCf4fNLpJAG+0S1bdtLoFadfYjb9hoojf5HSiA/qlRH/wMxb9tXphicfQjAvlH19hnkszE19vFmYF8pt8G+UAT+x3DxtwMaJVCA1qjpmFDur9zyqLkKB+hSU0qjR0lIEaBMnMskgHQtdw5cSB16mq8DIsUxaK5UCixzGWlXrPEQL6rvA0md6dcBQm0stLQ+CrYAcex8Lb23rwMK8ehSxb1jvcAjV+2dATVP9kE3YyPgUrVmHLvfSskgaJXeXReApQEBbB45gFUGVJot62NaVy11HWHUGUf20lPAJ1bi4AGI3yyefQZIoBBcugOrqBXFUHpHrtMEKsfT3rE2ZwSQ3mCryjVUCHueeEBBabU6NA9IaLfZ7M4TADTEstzYAzKIoSS/TQyAKm2AFnxa0XAtuTuwAiiYAgZgxyVbMSCtBgjiAQ1lKVF2gNYnz1ZaZ4ACLhVbONUD0HA1avh+uKy9LfLp7BJuUdUpaNRx0vtrlVaklJYWneqQcU9Xx1YlQVkyMkcPiKBwfPl7TW/U09VLgaWB0CBrE1ulC8D/AxDxcmaRaCCtytMbLl2+JUHD2KKmJhjUQasvnK1uKAVC18yrzQ4XdegzYqUdBL0h9uG+UidoGNdEPAZt+gfNJdMOLmhTWIIUVqE8abiIxIbpUHe0ClQEAKqXZKZD0UIxteN2XBJ8GoikI/lig7PVqOY2kKl1BjHYG2R0KYYu0raUrowuFXhAMZHolEOGSdVGQZ094oUJuDTOeoYTw2gWi/cflGDZViMrBOaHuevNd3t44J4EqEL7+UBf+7K7/nz/vcCWAnA/ecljExl540/n5gwoVuyq9D3WCrgQSLx5Ab4Hf8pTKP2ng7BACXzFPIFVNjlj2xb67kItUBJNiSxQjU9l4j5M/44EDHXBP36S+qO5Xbx//Xo4PD2dP56t//dfy+zW+Utbvv0F);lineShape=1;" vertex="1" parent="1">
          <mxGeometry x="148.29960176341547" y="1238.530894717318" width="18.801668532422354" height="38.139397499086044" as="geometry" />
        </mxCell>
        <mxCell id="As_d3XrpgWwLYWxegH64-226" value="" style="shape=stencil(lVjLctswDPwaXzHgmzyn6X9kJk7tqRtnHKePvy9YjRQDtFf1TZYXJEAsFqA24eF99/S23Xh+P5+O37e/9s/n3SZ82Xi/f91tT/uzPG3C4yY8vBxP22+n48fr8/T77akj+9OP48++wu/JjsnHbuT5z/SiVvL8783XCX/Yv17gPYWk8CUTu9v4TFHjM1MF67tANSuDWOctrxs0qk4buDmm6xFkKk0ZBE813DYIkZzewSeKIGZxwAQtTjbgkoRoXHKJAtghJSpmB0+pgDR4m2fHlIFLuVAJyqARgzQU2d9rYlAGeRbalKqJQR5EXJmKXj9SBf7USMFkmRLwp0q8mneeGiBFY0rN4HMFePm7GHxC+JF0lEC+WiIXDZ4xvhnKUcwAL/nS/jM1D/DF8oHnoriOb5SCwTPIl+BztesD/rRBJhxljG/a/4DPR/DanzQT/Lps8RLforyw5PsGOgEOK2mP2GTYzzm/ZWBS7CLUiJ4DnTORLUjqRrFag4JY1CgMO0Bat7l7LQZhLc+mzpxbi4G1UMgKmBgGn+90SJQAZ81E7Nf8CbbQChK6IWcMG8FICiaHz9Oyjhz2p1rhRYU21k2cX/xvYZY7K9+tSpeRFinMldK32hXXcpyHOgvYIA11VsAp3W8w9IPuEir9oeE43PGvdLSIdxhapmhFQTsMPVkMAsr00PS7AZKvYaoQA9Q2+9gy7JCBXMhcFAcueZC4PniZU0qUwbGWYb52GfadPjoaLkkrBCXdZ1PjklQIGmZl+tXjsnfwWFOyx9rbP8i0TPCmREXmUYn2O4Iu0cAwhn4L0TGEDC9G4kDVpxQDLKB+iLpTJQ9VQ6jWdOJSm/l74zKYjbLKkAq0fhmRlxGpwN4gI6Bm3qcQ3sKbYYGxdPOs0xcboGYit+tg8Wi4YJvjJryC67MJuKzhNSVEZdGEx/PdfsEn8oARQ+tsAc6o4/oecnoZPRY8Q2mR8zQzdlvxx+kKqBWWzL1fT9bx8vD5qeZlfzhMX3ou/7efduTV9FkoPP4F);lineShape=1;" vertex="1" parent="1">
          <mxGeometry x="172.43411845890205" y="1249.2670968896296" width="155.0494525154013" height="9.296242632941812" as="geometry" />
        </mxCell>
        <mxCell id="As_d3XrpgWwLYWxegH64-227" value="" style="shape=stencil(lVnbUhsxDP2avGrki3x5pvQ/mCGUTCkwQG9/X20zdtby5oS8heXIK1m3I+0u3Lw/3r3ud57fP95evu9/H+4/Hnfhy877w/Pj/u3wob924XYXbh5e3vbf3l5+Pt8f/369W5DLrx8vv5YT/hzlmFxehDz/PT6ohWr6/+TrEf90eF7hHSWDz1T5PD5QSSNeqMh5vFAuI15PCOfxhVwY8Y4cON8xZRkEihpQgUCg5EaBSB4JJEqjyYWJkUClUgeBLBSAzXqpfjQ6M3ngBJ8ojF5LQs4DgUphvKXE7aK33ezJj34TtQHFhTQ3dQEmAY4L3U1NIGqsgEiN6unxlqKDfoihadwEQmpHbAsIpTgK+Ob7bYFMebRBL5rRGyrl8Q1LggABcSSj0d43JbcFJqM1HHMGAkLsR4FMHmV0siXA9SO2BUpToAsEYvAGjU1TNJyDCZQ81dEGtdkBvCo8vqCQBxakfiM9fWCRTJpu4xVhL2dHcdQ/wlTIWjCywTOwN0eba6G9cBufSMbzPWwiudgY8u2AbXylKAaP6p0W3GIiiApIguJtuXOwFpVg48fBllCEpBo8I31yM6/h1SDgr1JsXWF4n5VttWaK4D7r1PUZ5ldV99vzUTOo0XbxruA2XlrV/DQ+e4sH919TM++Ed8C/dSpxikfnZ9uPFY/uJ9t4VkYB8ks53KQ/ajO1WsqieKRPtRWaYTwrfr4fkF+Kr3F3RbxVW68wl3Dc7TsJZOTgagPawRa24KcCgQ0oweADCuhquY12BJTw6mCrT8T2irN4bG+c7MXnTwUXUbMFbxO4YHsnfML6G30uFMTJXkzA5/vUALzKX5cTckp4bG+ZChxoMHM8q72oAE35wjA+txPygkI24+tVFUXHRGyAJa0UcIWznLVRlk9W3IsJeR1+6gCKR/ZOHUbxqGBNHUzv56oO6VrGfbIDO8wgpg7vcIBODMJBRj8zlAsF3dv4dJhxKMOyDcZjBhdsgUbxqQyx2PsRxCizXTG4NomeY7hTg6mggS0MemL0aM3jW3id8BGdz7ZgeTjV6oQhZvaH+45lgikGLyA+dUJKweDRRJilEbzTxIbyRSc808B0hMMTpGlI0gLw3IQazQaJEhrJp/qQ4QSjE7Yf9amwIaVg78dph0cjNk8NAM+Q0vegqy0Ecpnk1tJXew40dYrYqdwVSNNFY2xUaeG5oGqJjr1jVGvYIV4pUxtWP6PGHYv1g8froyhUR0eHADtHDHa3EDJWyVkb9EkBtxRKaxVdIMFkDkLRJA+mu8G3caQLJLjR8hP/0/gtwHF+qi+aUVAgNP6w2iGjin0aabtAgjtk13deqz14wZt2Q0q1q6AioClvUnRpc6hLtR7Zi4zHm0jLYpUGZICPzakdn2AyONuUlbYhp7GdahZaC87nqcAwniN4qsIVfhxhu8Rf8IB29TXHCo9Cgm11WfAgItjuFRdeDu3lSR+BDpjxiOZzW7Ou8AEEEFtWqnjUpNi2HMWjRVKf8lZ4lADXfh28jNcfp0+RD4enp+OXzPX/7adLfXT87Blu/wE=);lineShape=1;" vertex="1" parent="1">
          <mxGeometry x="346.4344364536105" y="975.2071452683631" width="230.1146218156241" height="106.35707533990353" as="geometry" />
        </mxCell>
        <mxCell id="As_d3XrpgWwLYWxegH64-242" value="" style="shape=table;startSize=0;container=1;collapsible=1;childLayout=tableLayout;fixedRows=1;rowLines=0;fontStyle=0;align=center;resizeLast=1;strokeColor=none;fillColor=none;collapsible=0;" vertex="1" parent="1">
          <mxGeometry x="583" y="1013" width="180" height="30" as="geometry" />
        </mxCell>
        <mxCell id="As_d3XrpgWwLYWxegH64-243" value="" style="shape=tableRow;horizontal=0;startSize=0;swimlaneHead=0;swimlaneBody=0;fillColor=none;collapsible=0;dropTarget=0;points=[[0,0.5],[1,0.5]];portConstraint=eastwest;top=0;left=0;right=0;bottom=1;" vertex="1" parent="As_d3XrpgWwLYWxegH64-242">
          <mxGeometry width="180" height="30" as="geometry" />
        </mxCell>
        <mxCell id="As_d3XrpgWwLYWxegH64-244" value="FK" style="shape=partialRectangle;connectable=0;fillColor=none;top=0;left=0;bottom=0;right=0;fontStyle=1;overflow=hidden;whiteSpace=wrap;html=1;" vertex="1" parent="As_d3XrpgWwLYWxegH64-243">
          <mxGeometry width="47" height="30" as="geometry">
            <mxRectangle width="47" height="30" as="alternateBounds" />
          </mxGeometry>
        </mxCell>
        <mxCell id="As_d3XrpgWwLYWxegH64-245" value="DNI cliente" style="shape=partialRectangle;connectable=0;fillColor=none;top=0;left=0;bottom=0;right=0;align=left;spacingLeft=6;fontStyle=5;overflow=hidden;whiteSpace=wrap;html=1;" vertex="1" parent="As_d3XrpgWwLYWxegH64-243">
          <mxGeometry x="47" width="133" height="30" as="geometry">
            <mxRectangle width="133" height="30" as="alternateBounds" />
          </mxGeometry>
        </mxCell>
        <mxCell id="As_d3XrpgWwLYWxegH64-246" value="Edificios" style="shape=table;startSize=30;container=1;collapsible=1;childLayout=tableLayout;fixedRows=1;rowLines=0;fontStyle=1;align=center;resizeLast=1;html=1;" vertex="1" parent="1">
          <mxGeometry x="840" y="953.39" width="180" height="60" as="geometry" />
        </mxCell>
        <mxCell id="As_d3XrpgWwLYWxegH64-247" value="" style="shape=tableRow;horizontal=0;startSize=0;swimlaneHead=0;swimlaneBody=0;fillColor=none;collapsible=0;dropTarget=0;points=[[0,0.5],[1,0.5]];portConstraint=eastwest;top=0;left=0;right=0;bottom=1;" vertex="1" parent="As_d3XrpgWwLYWxegH64-246">
          <mxGeometry y="30" width="180" height="30" as="geometry" />
        </mxCell>
        <mxCell id="As_d3XrpgWwLYWxegH64-248" value="PK" style="shape=partialRectangle;connectable=0;fillColor=none;top=0;left=0;bottom=0;right=0;fontStyle=1;overflow=hidden;whiteSpace=wrap;html=1;" vertex="1" parent="As_d3XrpgWwLYWxegH64-247">
          <mxGeometry width="30" height="30" as="geometry">
            <mxRectangle width="30" height="30" as="alternateBounds" />
          </mxGeometry>
        </mxCell>
        <mxCell id="As_d3XrpgWwLYWxegH64-249" value="id. Edifici" style="shape=partialRectangle;connectable=0;fillColor=none;top=0;left=0;bottom=0;right=0;align=left;spacingLeft=6;fontStyle=5;overflow=hidden;whiteSpace=wrap;html=1;" vertex="1" parent="As_d3XrpgWwLYWxegH64-247">
          <mxGeometry x="30" width="150" height="30" as="geometry">
            <mxRectangle width="150" height="30" as="alternateBounds" />
          </mxGeometry>
        </mxCell>
        <mxCell id="As_d3XrpgWwLYWxegH64-263" value="" style="shape=stencil(lVtJkhRHEHzNXNNyX84I/QMzQIwJAQZo+708NZbVnR5V3nAbmvCqXGLxWOopvfr24c2Xd0/Rf/v+9fPv7/5+fvv9w1P65SnG508f3n19/o6/ntLrp/Tq/eev7377+vnPT29f/v3lzZScf/3x+a/5hH9ecN6FPEHR//vyQ/GupP9/+fVF/uPzp02+l10+uJyv5aOLJJ/WL6fy2XmSL676a/ni4tjlm5v/vJKvrrZdfjgv9tud38+n4gTqtfxwaX9+ja4J+YDj7jsguyoWFIIrtKLqojihgCtIO6C5PCSgEaCvUzsHJBcIMNYjrgB533TDqao9JNf3N7TgulpSdoHeEF0PElD8DkiuqovL63kHILus9lD4lBp+0YDcGNDUxRU2zlZdVnuobD2taV2q65ruAEO9oblUd0B3rUvAoIsb2h6gm/umO0xKeJgAE93f0MO6+3MXBh8Zd0CUxwrA2FWjHwp/Dgiu0pKgS8KLwa2StvayHM85ILm0e42Ou1dLggHtytebC2rTxXk6pcN3XgGGAQy1aSgfndJwQ11cY8Dw65dzABawn9II6ypPAck7v9/DiHJJKThPS0pySQnee9elkaWrTGnF4wOACCq8RsocEkd1RehSKsv1HoAmdSk1c0pNBtEEzdn90uguCSeQhguBAWrT2S/XewdQjizj4nZHNsYKMVcA1qUhmUmO60x+dEmJIxAARb0hc3zAPTRx0xkmuocsqEYTNp2bOSUEMWFAubObmfag3oBDpGONyz2fE0TvIi3JS10CoSW+BL9UxB5KXI7xzrcqAwIFJnuAu69i0+U4k7sI1BQrzou73AVFRUPBspn+dA2oLhmuIffQ+B7Al5IC9EVF7jifsgcweboH0NAqVANUnnmrdmQ1sF8CWR+Ca4D8UzqDXxSVrmllI3f5RlaAzGEX55aEts4V76dUNBOohlVCu5RNIx9ptCRsWgEapzQwWhVFkY+Q8k23oPYw+KbhqZQBAUDOONeVKZ8C2kE6D4C26WbcDPx5EKc0M56dOiDEKHePjKfsb0CYVL4VGQ85YwRi5VubiUAJbkGE3Zki0ZKyvIdbinQA4koQrgBtN1FQrqg2XTnLQg6vEr/W2M3ELpMmAOiUwGQVq4TrJQoHrqw4H1IkCrug74pVzpxqPyUkCENcHMJH8gyIYg/ds7bOnEW4SiRhfA9B7gEhkKg0AKq0NGMm3YOXtSVkbVTMQe44VLEoc7UIAJXi90P7D0BfKfk5oCzucgCaTF4BGLtfCod7PgeAu+y6FMpisueAxqUWALwwoG7s4VatOQcYewhJWhzyQk8XFyX3BoBUI2hdmhySluTlGwCgsDuW/z+XN2W+rhcUTXVplTmu5MkDVElyQcsjBXXX1HoSn2hZ3OlcHipA8VOWTCBfyM9L0xymPJFWKLqSZx/86Pk9kryqiyORolgbpdHMnJw8xTrgK3lKGeBf1X3BigfJS31ui3vc5OX6G1dwvSz2IJUNLN/V+vsqvt7kpX52zpC8pGvDlIZ0n2RWBwbJq4oe5IllH6WlS3l+vlf6MOz6pT1CvpG8ivdTntejCpLBm9KZX4Hnh1+gShFnG1Ckyx5QkOXLcdQeb/JBKwRlFGF5vEv5wPJagVrj9T+QZ4XoWiEaG6R0QIOzwIcGY56f9Pk0NuDwYP3GYISCzvPn9TwwMCK8Dw148PlIBzqYQPgVQX7cIIU+nBuk6gWdAaoK2YNbOw9aqcNQ15880SDJ97wxtphHFvmT8pEtWFpA5xsOMj2ZIayzvDr/viLQHYXQITKwR1Qt1Bni+b662q8p+wRNsRpT0Kgt2PSLoiwSTYpVSF5S4mrX05XHNX2TJNOeSUGZ4sr7LZz1ZO0hjgLVTV4+P7M+F00JEnvoovUhreu5pSQyBYhLfW8pj6r0zBRpP88uC25IwSq1cReluJKnFGPI4jBSQqKsyCFlpm1DfJArAoAtOMol3Todd5m2oukzl6cl5UcAGggKeqih11XDvytgqNYeAJ720GQJfdZUKPXRufas2pCjHpIrzrrQYICqxM55AXItXm868pLgTBV96qZeML2pKugFTvgAUIMZ3XPzcA4hqKqN56r+zOnFHtpgBwAPpmpbzbQB4JJUZ6J1s+mqa+6N0zI4JfmGxv1MeBnFw5upzyUv+2itcBhMQXZXAKDGW0q6lZFNo6FI5WuJB2TmiIDuTETTmVCd63bo5hHbNJttgdPFHGV0BiDtqpGTdGTNmyUVyciryUhzlQG0GsKZu2zH1M7tmDxkQKmN91DCqsOdA8zAWNFOoBbedNFTcgBQzb1UvYfMsyJzBFS9IfH8Vw1yFKpGrmXiEcoe5vOI+ZRHnWuinrgZ5SqxRQq7UEdFhmcXmbrv2t0XO+lX5LHimqjCCl+oVGPOKNC04pA13JI5PswmkwIkDlm3FtAVgAJ71zZdIrv7fsxFnAPC6uYfAD1GVExnYuhCFkye3gCiLEdwOneuZzFejRE1M51VZeY8547MhJkaWZ6TTWZgrKg9mIHima2rN0Qz9Db0KJSZ/7ormFwhaFjkVvM5B3gzJqfnrtMwU29DUuM5iGd2rbxxqlzjmVUKtaTCfQoAvNCNlDkEQTcU/5kDkUb7VCskRTOTVmRpOgUOQUPPfkRT2Rp62HxmnmbOVAKaOdYg7yGafhHSU/kGQyvhmNRoE7g5qQayTTXVMMsXe5CDr5QDwonH2QFQH3fMHh0FiCqL7DGw8sHfy6lo870MckHlvm9V4LsQJEfyB/PQHmUZBMkthVFEReX6QjOD2g96O81whyGzplC5F9H0+G4wpbf5HYL6SqCsrw7uAKpdAAB9JdCqLocbHtr00E7I3CCZhEl9GpG5XjQnKNWxZp6QQR4lvwdJZklRb9pMyDTNsACgGhl4qJpTCJGLlMhyFJcOlnx3WaYMZvAISYvUJc9FMrD1pL8JI/mkc1F2lMgPZDbAdcoyZCZamL+Bu6vhr8SdpDn8qzw911lLliHdc2euRFl/86zWkySL9XjzTWGQE+CeZ3DnSLi4X29GcIMsHZi+WQmyF2/lvZyBPJNXk3SeC6aQV8UVu1/d+PMmQ/eyJmZCYNFfdBkaPOWFvXhTAPCy0fPz38g+kscftw9y3z9//PjyPe/9//MHvPjp5ePf9Po/);lineShape=1;" vertex="1" parent="1">
          <mxGeometry x="47.43539127927124" y="1026.3396009205276" width="533.853654711068" height="128.87231307559932" as="geometry" />
        </mxCell>
        <mxCell id="As_d3XrpgWwLYWxegH64-264" value="" style="shape=stencil(lVnJchQxDP2auapk2ZbtM8t/UEUgU4SECmH7e2Sm3LTlnjdwm0Wv29qf5FN89fX+3Ze7k/DXl+enT3c/zu9f7k/x9Unk/Hh/93x+sU+n+OYUX314er77+Pz07fH95fuXd12yf/r89L0/4ecF1xpp7SjhX9svjf/88vYCeDg/zoDAM6BSEQCoFNsMUKoRAApVmQGZQoMAdm8QqgoAShInQG1U0JEySZkBSpwAIJGEGRDwkSKFGVAKJeSHQC3NACFFb2Aqs+O0UM7XAWaTNB9JhQT4oVbi2UrZPAOOZEbU2dNZhiuPAZk4T4BUhiuPAWbW+UhJKCJAIJ6VjmYlcKRSx98bQKgVAMjU5oyTCh1XTIfZ05JIQfAV9ikqgQJ4gyq12Q+hDkMfAyLpbKWQKSIAk8yOC6YVAGSl4t6Adcib1bciQAmUpdSIZyMVKhXIJ1+VrIggeR5O3SJvPOBQPuoSR5RAGFmU6WxRGel6KG9B1ubzBBhEkkmjkxdwfhGvr/kLJJqwj+oA/dUjUp2+jOTVl2yhAuwZkj9/HAY+ll8rC2V0Hqv/s76WMeg87BNAof2tgakTbyA8K9U52sp43RVxnmtWhelevO0t2UAsKCXHQWBoZk9ZzFaoCaTReXfyqNsnr6z5TkDpiRSXUlVRKvpMD7ivhkHIdvIFWJ89u7FYrSDUeBTWvTzQd2kvJl/A+dk3bZNHDY99Czb5BGKZfSU3eVSaj57P0D4cvf0rfn718ije1kooo/Ze8+8SDwqoIvtsvPn8uOiLGD6PQra3D7RnWvyFaCJ7Htr9C5/vBo6AW6nJL/GPSj8v+R4hdTjiPjfyqy7y8PlBFnnoL170RcWfR6PdyWdQn4/yEXWLI/mAn+/OI2MW+kd95Ya/vD3xZLX661Y+/p988MzT+gvKXxlEZE+dQX2OS79gGA9pqZ8Mqbn1X7cxGGPftfbuxRGRVJ/tFU61xRu/wNixfz1PQlSgelUVqmqGcAPzoGXXOKGfl0eoXuOcxXNUdPqwLCEi3EF0zuwGTVgYwkZhdzMI4tjVd16Gu6meWV4eEas+sxQnz+j52c9cDNcVfeaqTj6DxOoznasMkMjEZX8isNCmZQUUxw9XZ965cmY4tPeZeraPwsKZo6/kNlaA8/SlgGMaDNdwekRlICB6C1mMC1pslIUcKl7/LOz8RhCVOGJ4A2zbl2OADidtgIIXTNWb1QKR0TQY/HYzYkfX6ClfsmkfAfIIhA2gcD1Q1Q+0OeBF3zbBbgCFydNXxK62B9i2G/veoYp3wOJDo4SxtLm2NHZmNd+jhG6J8gwwV6KMbnk00w2QYYo2HRVuA1SsQ/Hsu+HFTlt2EaYVPFId24QNkCGfbo3iXJbskKhP9SuTWWl7J2LgHZA8oN0AuI1KwxcQzQdfv7iB3GKh4d0OqJsfIhK6qGm+Hza86emA7AFoi9cB4gE3fF0Xwzbs6xoXAFa6+HUVphltu4zavwJr/d+XeLcA9uHvneGH88PD5cpx/7+/Y7SfLveT8c1v);lineShape=1;" vertex="1" parent="1">
          <mxGeometry x="762.3910913273562" y="1243.1860994624813" width="277.17682395367365" height="88.37991741882979" as="geometry" />
        </mxCell>
        <mxCell id="As_d3XrpgWwLYWxegH64-265" value="" style="shape=stencil(lVdJcttADHwNrygMMOvZcf7hKsuRKorlkpXt9wGjDO0BqU75Jg3RJLbuASa9e90/vOwm4dfL+fR19/PweNlP+mkSOTzvd+fDxX5Nej/p3dPpvPtyPn1/frz+f3mYLedf304/5jf8uuJaoVpnlPDvfyeNMv89+XwFHA/P7wFMoiMgEIfbgBoo8gCoQlxvA4qSlgFgJ6ncBuRKYQTMJxEAAuU4AgIpCDolSmEA2AkDQGyU0gCIlZoCQCQZ6xAtDSCt2khlAGihBlzSSMkBFMYgjdoIkEoxA0DqZVoAS1TbAGuNNgKYIshSKJTGwoUM0xoicR4BSgUBmMrYrXaCvlCojHWrlEHITGn0R6iBKhvZkjNPoLHZR2tMA8ThXv8l1t61t8ybM2fojI6csdgbMnecXGLfLhRxcubImVWnMRSt4FufoaAIiX97FGTumoCpghYTKsHlXeHbizjzCn1PjoOk0FzVmRegCZbIMVTtLXrD3PFbSWCZAjvzgFusemcg+TS6UDG1Q3DmgrnqyYeEaWnvN3OUGSOPb2D89uTNFSpB89RmkPfgE8nw4gleUhnOC0LBm6OL84PmjWQsUyZBDSxel2pn77Z9ojjaBxtOkO5VP7DZHQfVQ1aASoryaVeqUwTcyWr1dddO7lFtAxI1R0Q8Q0buErYAUheWbUDyPRQDlLVkDowMiLnfAduA4vmbpEe1PXSaNo2VTg1OR9kG8bEOOXe92x5FYp9UlsE5dF5vj+bm8ZjW0vrJNhlCHzGX7sZj7bxMjEphC0dEX2hU2QMQgVrzMbRKDCe8lfI2TIj5E80DCg7C6aOdIIG0xyV7QERb2Gq/mDMNCGGP3YgyZxpwdPZ4FUMDw+ScEz85Y503hNsM508gn2ytk1UQqDk+vN3+H2A/3pbpp8PxeN3F3z/3y7cdXRd3vf8D);lineShape=1;" vertex="1" parent="1">
          <mxGeometry x="761.641530550793" y="1278.4384661134072" width="44.92226602970504" height="38.1272800542788" as="geometry" />
        </mxCell>
        <mxCell id="As_d3XrpgWwLYWxegH64-266" value="" style="shape=stencil(lVnLctswDPwaXzEgwec5bf8jM3EaT9Mkk6Svvy84HsoiKK2Tmy0tJBDELgDqIDdvD7cvx4Pnt/fX5x/HP6e794eDfDl4f3p6OL6e3vXXQb4e5Ob++fX4/fX519Pd+f/LbUO2Xz+ff7cn/D3bMXlpRp7/nS/USul85dsZ/3h6WuETBYMv5Hgf7wJVPxokYrdv4B1JHg0CuQoMar+9GDhKwEAK+dGgFIp53yDkfnsxiMQgSDFRNgaOPIhSiiSjSzkTA5eyp8qjgaccgEElToNBKiTAoGjUx51OgbgAg9JjshgwubhvUJmqGww0bgEZiN3p6Kkgg9Bvd4NQ+95vG2hujm8IkQrYaTWoY1iDpwjCWjWXxkVLpQB2uhmMbxCNElpDJh9GA6GIopSsBghTRosOlg8ei0D1Npd8hG8oymnzBoFhVUKmcadVRwKQGSVkHKPkKjRQQooxWLZy20CzdVQ+p4sGBErV7oOKpwep0VRjzCXnu9puGzjKxqXlyraQTVLpmBJwKUby4z5UuGYlsEmlCqtDZOJxBaWXiz3plpE9GcpkCFZictfNbfykYYkErFcyJaN5kAiyZMAFj/xR5ppyG3pl2S6emsNl5D5MiPY4i2cQz8bCkTW+NxDb7UKx8XRUwfNd6qX+gkfiqPkex7rJ/cIe3pCY+4K28UylGLyA/Wp4Z/CI8oqv1n8H8q35Hy0e8KvFRwyeQe1QwWHrP+Kv4qONJ6P4i20qFgHYw4ds8SieQmWKJ9pfoVoN3iN/whwfQfFRf6z/iL+KjxaPugnFT/kQkf/e1lWGvYSbKj3Duq35lsJn/HG2Rup6Mb+q9R/Gc4OPgvKTbYep+YD5xRMfkR46Oxgw1H/FFxtPyBdPYv2BfPRzfkK+i+2arujJZ/G1u3vRf6SH+rhaDD6h+iU2/prgIP5a/r3Fo/5H250wxl/gCCTe6lXoBWobn7qcXfAZzcbqzxifCP3RacfkW4KTQEg9fBc88idM8cndwb1+0o38LZBfMVBKBl+A/3HqJys8OtAROJh+Bgt00gJgGpqlJG8bZNvRuCsnAa4r5mrMQD1BjvZERgeZBJIu1357NSqhLr2IzSLlNWqDSrZluB0boQnU9bK1GihRI9dm3GlkTYD5OnYbJdJUQtJVi029NnajNdQ+en1wsHfM1qdrZwe1d9vr0wnANzUw+tjOP1CYim0A2wkLClMmPyqSaoKA7KtxGrF859TesZKMWx0TnOwr26Em4S6wJJtMKcAyUqaxKRWYrnmau7MuGrxBZSOPUcoZdi6x2s5FnUSjjW6TIXWJ8BBUZ2kTpVIoo2FXozTmktIc7bSfumWleUDt0XIKuzq9hsLUD89Xx+MoSN6eBjYGghh5215cGLuD5/n5aD7oCrTGo355Kg18pYHsxwUffMFyEvnBBbAtblcCxPaw9MoGcD8DX+GRfE0KrHjU8Gziof+zPwkI9me/91zH64/Lx6X70+Pj+dvU+r79GKWXzh+y5Ot/);lineShape=1;" vertex="1" parent="1">
          <mxGeometry x="760.4379717833144" y="1288.2130472348167" width="41.04477938367609" height="240.35298647234595" as="geometry" />
        </mxCell>
      </root>
    </mxGraphModel>
  </diagram>
</mxfile>
